<?xml version="1.0" encoding="UTF-8" standalone="no"?>
<svg
   xmlns:mapsvg="http://mapsvg.com"
   xmlns:dc="http://purl.org/dc/elements/1.1/"
   xmlns:cc="http://creativecommons.org/ns#"
   xmlns:rdf="http://www.w3.org/1999/02/22-rdf-syntax-ns#"
   xmlns:svg="http://www.w3.org/2000/svg"
   xmlns="http://www.w3.org/2000/svg"
   mapsvg:geoViewBox="-25.360994 37.343521 59.838547 -34.833225"
   width="239.05701"
   height="217.31789"
   id="svg2"
   version="1.1">
     <style>
    .country:hover {
      fill: #ffcc00;
      cursor: pointer;
    }
  </style>

  <metadata
     id="metadata263">
    <rdf:RDF>
      <cc:Work
         rdf:about="">
        <dc:format>image/svg+xml</dc:format>
        <dc:type
           rdf:resource="http://purl.org/dc/dcmitype/StillImage" />
        <dc:title></dc:title>
      </cc:Work>
    </rdf:RDF>
  </metadata>
  <defs
     id="defs261" />
  <path
     d="m 229.12,38.71617 0.184,0.25231 0.026,1.70983 0.042,0.12162 -0.098,0.0181 -0.11,0.12967 -0.129,0.20003 -0.177,0.10354 -0.142,0.1166 -0.134,0.14475 -0.12,0.0312 -0.155,-0.18395 -0.107,-0.18797 0.026,-0.0412 0.075,-0.0131 0.028,-0.0975 -0.045,-0.14073 -0.105,-0.0532 -0.132,-0.004 -0.127,0.0633 -0.135,0.12464 -0.076,0.13369 -0.011,0.26839 0.035,0.30155 -0.001,0.14676 -0.074,0.18195 -0.026,0.26737 0.053,0.20707 0.048,0.12364 0.005,0.10454 -0.126,0.3297 0.109,0.0623 0.361,0.0231 0.106,0.22315 0.072,0.15279 -0.02,0.0905 -0.256,0.0673 -0.322,0.0744 -0.231,-0.0211 -0.418,0.10052 -0.223,0.1548 0.065,0.0965 0.077,0.0744 0.035,0.20406 -0.065,0.2895 -0.118,0.28044 -0.147,0.34981 -0.17,0.40107 -0.233,0.60312 -0.197,0.47344 -0.021,0.34076 0.005,0.22215 -0.022,0.44329 -0.187,0.24426 -0.042,0.007 -0.223,-0.0292 -0.075,-0.0101 -0.213,-0.0282 -0.33,-0.0433 -0.429,-0.0573 -0.507,-0.0663 -0.565,-0.0754 -0.604,-0.0804 -0.625,-0.0824 -0.624,-0.0824 -0.605,-0.0804 -0.565,-0.0744 -0.507,-0.0673 -0.428,-0.0573 -0.33,-0.0433 -0.213,-0.0282 -0.075,-0.0101 -0.236,-0.0312 -0.127,-0.16484 -0.154,-0.19904 -0.155,-0.20003 -0.154,-0.20003 -0.154,-0.20003 -0.154,-0.20003 -0.154,-0.20004 -0.154,-0.20004 -0.154,-0.20003 -0.154,-0.20104 -0.154,-0.20003 -0.155,-0.20104 -0.154,-0.20104 -0.154,-0.20103 -0.154,-0.20104 -0.154,-0.20104 -0.154,-0.20104 -0.104,-0.1347 -0.057,-0.15178 -0.011,-0.39806 0,-0.0875 0.104,-0.16083 0.05,0.11459 0.116,0.1558 0.197,-0.0381 0.092,0.0262 0.068,0.55185 0.145,0.19601 0.176,0.0784 0.597,0.0433 0.371,-0.0744 0.731,-0.35985 0.384,-0.12968 1.062,0.0221 0.851,0.14977 1.325,0.0885 0.257,-0.0231 0.715,-0.2895 0.438,-0.25532 0.261,-0.0734 0.172,-0.24728 0.113,-0.32166 0.101,-0.21009 0.129,-0.10052 0.122,-0.17893 0.099,-0.29049 0.246,-0.29352 0.986,-0.71469 0.576,-0.60513 0.051,-0.19601 0.313,-0.29352 0.251,-0.32166 1.175,-0.92075 0.235,-0.38097 0.139,-0.42721 0.017,-0.0302 0.101,-0.0181 0.144,0.0643 0.015,0.31965 -0.053,0.30156 -0.006,0.31966 -0.021,0.17288 0.109,0.14174 0.186,0.0613 0.081,-0.007 0.048,-0.0714 z m -0.046,1.28967 0.017,-0.1337 -0.029,-0.0693 -0.12,-0.009 -0.05,0.11559 -0.017,0.16586 0.083,0.0141 0.116,-0.0834 z m -5.096,2.45065 -0.025,0.0603 -0.079,-0.005 -0.198,-0.0542 -0.064,-0.0865 0.124,-0.10353 0.055,-0.005 0.079,0.10856 0.108,0.0855 z m -3.181,0.56693 -0.208,0.0171 -0.188,-0.1166 0.397,-0.15581 0.107,-0.0703 0.116,-0.14374 0.093,0.12364 -0.103,0.194 -0.073,0.0834 -0.141,0.0683 z m -2.008,-0.0915 -0.047,0.0221 -0.05,-0.16586 0.003,-0.0522 0.129,-0.0754 0.079,0.1357 -0.114,0.1357 z m 3.679,0.34177 0.001,0.10453 -0.285,-0.0302 -0.076,0.0542 -0.234,-0.0302 -0.229,-0.0754 0.155,-0.12565 0.404,-0.14777 0.168,0.1347 0.096,0.1156 z"
     title="United Arab Emirates"
     id="AE" />
 
  <path
     d="m 213.15,37.99143 -0.091,0.23823 -0.087,-0.0834 -0.22,-0.41213 0.066,-0.2895 -0.103,-0.41414 0.049,-0.11861 0.264,-0.0553 0.061,0.0181 -0.079,0.13268 0.146,0.2312 0.022,0.38097 z"
     title="Bahrain"
     id="BH" />
 

  <path
     d="m 192.49,80.70911 -0.243,0.38298 -0.311,0.49053 -0.353,0.55688 -0.221,0.004 -0.171,-0.0322 -0.118,-0.0945 -0.242,-0.10354 -0.273,-0.007 -0.26,0.0965 -0.44,0.11961 -0.398,0.0392 -0.321,0.0663 -0.265,0.0774 -0.24,-0.0422 -0.207,-0.0694 -0.046,-0.59306 -0.048,-0.64332 0.005,-0.5036 0.073,-0.27744 0.065,-0.10856 0.376,-0.38298 0.13,-0.15681 0.429,-0.63529 0.369,-0.54581 0.275,-0.40711 0.085,-0.0804 0.116,-0.0784 0.082,0.0231 0.536,0.39303 0.094,-0.0111 0.179,-0.12163 0.162,-0.42017 0.114,-0.1538 0.049,0.004 0.344,-0.11761 0.311,-0.1337 0.04,0.13872 0.47,0.56493 0.155,0.27743 0.157,0.50862 -0.082,0.28246 -0.123,0.18496 -0.181,0.16384 -0.629,0.40308 -0.699,0.25633 -0.446,0.51365 -0.332,-0.0352 0.051,0.194 0.123,0.0221 0.194,-0.0372 0.385,-0.14876 0.341,-0.0714 0.369,-0.005 0.334,0.0643 z"
     title="Djibouti"
     id="DJ" />
  <path
     d="m 95.191,1.53207 0.059,0.18697 0.01,0.1749 -0.266,0.16284 -0.175,0.0945 -0.21,0.44932 -0.389,0.30457 -0.065,0.0925 0.003,0.0834 0.264,0.13771 0.088,0.13067 0.041,0.1749 -0.118,0.62524 -0.074,0.47847 -0.097,0.62623 0.004,0.23823 0.1,0.28547 0.099,0.22216 0.031,0.25129 -0.035,0.61819 0.121,0.35685 0.097,0.3287 -0.231,0.40911 -0.099,0.36086 -0.062,0.51567 -0.025,0.32468 -0.149,0.29954 -0.194,0.28045 -0.219,0.1749 -0.27,0.15079 -0.311,0.19802 -0.252,0.52974 -0.545,0.44027 -0.114,0.15078 -0.051,0.35182 0.013,0.48751 0.096,0.387 0.261,0.57095 0.229,0.62724 0.062,0.31463 0.088,0.11961 0.322,0.20507 0.557,0.27743 0.103,0.11358 0.276,0.43023 0.262,0.76997 0.082,0.50864 0.51,0.40408 0.471,0.37192 0.452,0.32669 0.491,0.35384 0.071,0.10855 0.163,0.74887 0.163,0.74183 0.178,0.81522 0.18,0.81621 0.212,0.95795 0.12,0.5418 0.145,0.65639 0.171,0.76797 -0.275,0.16284 -0.31,0.20808 0.226,0.39403 0.436,0.64031 0.263,0.51566 0.092,0.22416 0.205,0.63829 0.167,0.61719 0.043,0.20004 0.061,0.47445 -0.075,1.30273 0.12,1.64751 0.162,0.81823 -0.255,0.7368 -0.218,0.70264 0.014,0.35282 0.12,0.54984 0.118,0.4061 0.16,0.21309 -0.031,0.68253 -0.067,0.24728 -0.49,0.35684 -0.543,0.32669 -0.15,0.27643 -0.043,0.30758 0.072,0.2503 0.373,0.55286 0.561,0.82727 0.617,0.90869 0.051,0.22818 0.025,0.64333 0.257,0.80717 0.278,0.35181 0.104,0.26236 0.197,0.18797 0.196,0.13771 0.122,0.0161 0.693,-0.21913 1.185,0.36188 1.121,0.36789 0.082,0.0724 0.245,0.46541 0.401,0.75892 0.297,0.60612 0.266,0.5418 -1.453,0.93282 -1.454,0.93081 -1.453,0.9288 -1.453,0.92578 -1.453,0.92478 -1.454,0.92277 -1.453,0.92076 -1.453,0.91773 -0.964,0.60815 -0.613,0.53677 -0.769,0.67047 -0.726,0.66543 -0.571,0.52371 -0.74,0.67549 -0.373,0.34076 -0.825,0.75289 -0.248,0.13368 -1.093,0.22216 -1.003,0.20304 -0.926,0.18797 -0.633,0.12867 -0.613,0.12364 -0.891,0.1749 -0.636,0.12565 -0.686,0.13469 -0.107,0.0231 -0.124,0.005 -0.093,-0.005 -0.19,-0.0744 -0.229,-0.1759 -0.153,-0.0905 -0.038,-0.13871 0.089,-0.18496 0.111,-0.16585 0.042,-0.13068 0.076,-0.0995 0.098,-0.0804 0.004,-0.11359 -0.081,-0.18696 -0.071,-0.25833 0.003,-0.46943 0.002,-0.15681 0,-0.0563 -0.205,-0.17993 -0.387,-0.19903 -0.356,-0.1166 -0.162,-0.0402 -0.393,-0.0704 -0.543,-0.12564 -0.191,-0.0865 -0.352,-0.43726 -0.173,-0.11157 -0.815,-0.0744 -0.271,-0.0724 -0.222,-0.10354 -0.19,-0.14073 -0.107,-0.24024 -0.032,-0.19601 -0.071,-0.0935 -0.899,-0.47445 -0.229,-0.16083 -0.121,-0.14978 -0.004,-0.22214 0.024,-0.27241 -0.038,-0.24225 -0.038,-0.11862 -0.411,-0.28748 -0.919,-0.64533 -0.919,-0.64534 -0.919,-0.64633 -0.919,-0.64736 -0.919,-0.64834 -0.919,-0.64936 -0.919,-0.65036 -0.919,-0.65136 -0.919,-0.65338 -0.92,-0.65236 -0.918,-0.6554 -0.919,-0.65538 -0.919,-0.65639 -0.92,-0.6584 -0.919,-0.65941 -0.919,-0.66041 -0.777,-0.55788 -0.857,-0.59105 -0.637,-0.43324 -0.632,-0.43224 -0.68,-0.46339 -0.442,-0.28749 -0.527,-0.34377 -0.528,-0.34479 -0.528,-0.34477 -0.528,-0.34479 -0.528,-0.34477 -0.528,-0.34579 -0.527,-0.34579 -0.528,-0.34679 -0.528,-0.34679 -0.527,-0.34679 -0.528,-0.3468 -0.528,-0.34779 -0.528,-0.3478 -0.528,-0.3488 -0.528,-0.34881 -0.527,-0.3488 0,-0.64533 0,-0.52571 0,-0.774 0,-0.67348 0,-0.67348 0,-0.4644 0,-0.4845 0.014,-0.21914 0.052,-0.0935 0.285,-0.15781 0.446,-0.35987 0.165,-0.15982 0.211,-0.16183 0.747,-0.48752 0.155,-0.1367 0.726,-0.56191 0.17,-0.0824 0.39,-0.0553 0.163,-0.10554 0.219,-0.22517 0.322,-0.25733 0.209,-0.12263 0.05,-0.0221 0.134,-0.0181 0.671,0.0764 0.282,0.0573 0.337,0.0482 0.105,-0.0331 0.09,-0.0804 0.127,-0.17993 0.027,-0.2141 0.008,-0.18697 0.02,-0.0814 0.059,-0.0372 0.147,0.0141 0.196,0.0252 0.401,-0.008 0.136,-0.0262 0.455,-0.0403 0.643,-0.12163 0.51,-0.15883 0.406,-0.12565 0.435,-0.3307 0.319,-0.34881 0.331,-0.52069 0.263,-0.45233 0.533,-0.28246 0.445,-0.17189 0.255,-0.0673 0.578,-0.23923 0.489,-0.36187 0.459,-0.33975 0.351,-0.0452 0.444,-0.0563 0.099,-0.0633 0.112,-0.12062 0.006,-0.2131 -0.134,-0.14978 -0.162,-0.0784 -0.115,-0.0865 -0.114,-0.0161 -0.061,-0.10253 0.034,-0.18898 0.017,-0.1749 0.073,-0.1749 -0.02,-0.24728 -0.114,-0.24728 -0.035,-0.17792 0.008,-0.17692 0.056,-0.1377 0.164,-0.0915 0.191,-0.0352 0.268,0.0442 0.463,-0.0593 1.185,-0.4282 0.082,-0.13169 0.076,-0.29653 0.085,-0.26034 0.123,-0.0875 0.067,-0.0191 0.395,-0.0703 0.559,-0.0985 0.21,-0.0141 0.61,0.0282 0.444,0.0211 0.718,0.0342 0.51,0.0171 0.444,0.0151 0.566,0.0201 0.139,-0.0603 0,-0.18998 -0.102,-0.35383 0.062,-0.22114 0.218,-0.20506 0.272,-0.22919 -0.127,-0.27944 -0.217,-0.18697 -0.303,-0.22516 -0.157,-0.0915 -0.275,-0.27241 -0.168,-0.3106 -0.114,-0.65539 -0.209,-0.3679 -0.152,-0.45435 0.135,-0.83532 -0.202,-0.5056 -0.031,-0.21914 -0.002,-0.25833 0.062,-0.44731 -0.04,-0.63026 -0.238,-0.65136 0.112,-0.22215 0.052,-0.1156 L 66.239,9.97667 66.022,9.7696 65.93,9.59771 65.978,9.43688 66.091,9.20267 66.081,9.10417 65.73,8.8187 65.138,8.3553 64.972,8.15226 64.891,7.89794 l 0.567,0.0653 0.293,-0.0312 0.672,-0.30557 0.534,-0.41314 0.415,-0.21008 0.365,-0.45334 0.331,-0.28648 0.478,-0.3096 1.379,-0.66846 0.211,-0.005 0.454,0.15178 0.395,-0.0472 0.27,-0.23422 0.291,-0.56492 0.451,-0.34477 0.569,-0.34579 0.774,-0.33071 0.507,-0.30457 0.802,-0.26436 2.013,-0.16788 1.034,-0.14977 0.703,0.0342 0.71,-0.4845 0.355,-0.15983 1.537,-0.0372 0.725,-0.35483 2.748,0 0.336,0.11862 0.33,0.19098 0.562,0.45938 0.28,0.10052 0.363,-0.0955 0.844,-0.43525 0.952,-0.22717 0.518,-0.25934 0.22,-0.37896 0.446,-0.13972 0.251,0.29151 0.987,0.29352 0.606,-0.0844 0.266,-0.0885 -0.096,-0.43525 0.641,0.1156 0.492,0.21008 0.515,0.42018 0.334,0.0834 0.608,-0.18899 z"
     title="Algeria"
     id="DZ" />
  <path
     d="m 167.097,20.59355 0.041,0.0995 0.092,0.27542 0.233,0.69962 0.204,0.54682 0.249,0.75591 0.078,0.28949 0.033,0.20004 0.362,0.82828 0.215,0.6785 0.157,0.55085 0.222,0.80214 0.096,0.27944 -0.157,0.14575 -0.314,0.51969 -0.335,1.64551 -0.479,1.2796 -0.054,0.79913 -0.077,0.28749 -0.228,0.40409 -0.276,0.39504 -0.491,-0.20406 -0.8,-0.69559 -0.466,-0.66142 -0.5,-0.42821 -0.472,-0.56794 -0.129,-0.40911 0.005,-0.26336 -0.206,-0.64232 -0.153,-0.30457 -0.576,-0.68453 -0.165,-0.3659 -0.126,-0.16183 -0.127,-0.2312 -0.209,-0.89362 -0.228,-0.56893 -0.26,0.15781 0.046,0.23923 -0.227,0.33072 -0.137,0.38297 0.105,0.31262 0.471,0.47545 0.095,0.20809 0.11,0.44931 -0.018,0.61016 0.076,0.20606 0.353,0.45234 0.126,0.26838 0.076,0.23119 0.117,0.20908 0.35,0.39203 0.503,0.74585 0.477,0.5026 0.345,0.24225 0.146,0.24226 0.033,0.62422 -0.026,0.29754 0.303,0.55989 0.112,0.28246 0.292,0.23019 0.134,0.26235 0.123,0.42721 0.185,1.2595 0.254,0.30861 0.785,1.6475 0.662,1.03837 0.32,0.774 0.489,0.93884 0.957,2.05462 0.569,0.63127 0.227,0.35483 0.412,0.2724 0.446,0.39404 -0.425,-0.0383 -0.108,0.0232 -0.149,0.0673 -0.071,0.23923 -0.031,0.19501 0.052,1.03033 0.117,0.5247 0.374,0.99012 0.279,0.29653 0.136,0.19199 0.19,0.13972 0.887,0.33775 0.519,0.71167 1.166,0.89864 0.114,0.24829 0.003,0.0573 -0.921,0.001 -0.921,0 -0.921,0 -0.921,0 -0.92,0 -0.922,10e-4 -0.92,0 -0.921,0 -0.921,0 -0.921,0 -0.921,0 -0.92,0 -0.921,9.9e-4 -0.921,0 -0.921,0 -0.921,0 -0.525,0 0.09,-0.26939 0.055,-0.18998 -0.062,-0.13269 -0.179,-0.0332 -0.117,0.0423 -0.275,0.56391 -0.144,0.0222 -0.327,0 -1.072,0 -1.073,0 -1.072,0 -1.072,-10e-4 -1.072,0 -1.072,0 -1.072,0 -1.072,0 -1.072,-0.001 -1.073,0 -1.072,0 -1.072,0 -1.072,0 -1.072,0 -1.073,-10e-4 -1.072,0 0,-0.67951 0,-0.68152 0,-0.68253 0,-0.68252 0,-0.68454 0,-0.68554 0,-0.68655 0,-0.68755 0,-0.68956 0,-0.68956 0,-0.69158 0,-0.69358 0,-0.69358 0,-0.6956 0,-0.6966 0,-0.6976 0,-0.69961 0,-0.70063 0,-0.70162 0,-0.70262 0,-0.70565 0,-0.70565 0,-0.70766 0,-0.70865 0,-0.71067 0,-0.71168 0,-0.71369 0,-0.71469 0,-0.7167 0,-0.71772 0,-0.71971 0,-0.72073 -0.024,-0.13469 -0.156,-0.49154 -0.141,-0.62523 -0.154,-0.76998 -0.02,-0.25029 -0.258,-0.79611 -0.024,-0.22617 0.065,-0.16083 0.424,-0.67248 0.128,-0.32769 0.107,-0.39303 0.036,-0.31965 -0.125,-0.49054 -0.146,-0.44128 -0.049,-0.45233 -0.021,-0.4453 0.217,-0.30458 0.26,-0.28547 0.097,-0.1749 0.154,-0.19702 0.108,-0.0925 0.211,0.40007 0.44,0.0683 1.434,-0.35583 1.583,0.35884 0.873,0.13672 1.346,0.30456 0.819,0.54281 0.225,0.0683 0.589,-0.0111 0.386,0.32065 1.536,0.1538 0.82,0.35282 0.465,0.28146 0.279,0.0865 0.247,-0.0141 0.333,-0.10554 0.421,-0.19802 0.457,-0.27542 0.949,-0.70866 0.336,-0.12465 0.219,0.0332 0.267,-0.0101 0.111,-0.19199 0.141,-0.13168 0.088,-0.14977 0.144,-0.18094 0.494,-0.0502 0.989,-0.3096 -0.111,0.14676 -0.901,0.34679 0.386,0.0432 0.395,-0.11861 0.451,-0.0754 0.082,-0.14776 0.059,-0.27643 0.086,-0.0391 0.312,0.0522 0.927,0.4262 0.231,0.008 0.653,-0.2322 0.139,-0.0492 0.212,0.12866 0.482,0.52974 -0.168,-0.0111 -0.516,-0.45434 -0.046,0.22717 -0.294,0.39805 0.367,0.17189 0.299,0.0643 0.16,0.22214 0.101,0.19702 0.295,-0.0865 0.211,-0.2684 -0.11,-0.14976 -0.074,-0.1548 0.096,-0.004 0.205,0.12767 0.587,0.50963 0.198,0.10554 0.228,-0.0181 0.477,-0.14274 0.133,0.0221 0.64,-0.18797 0.075,0.13772 0.106,0.1367 0.516,-0.15279 0.809,0.002 0.663,-0.16585 0.768,-0.40409 z"
     title="Egypt"
     id="EG" />
  <path
     d="m 46.751,33.58968 0.001,0.52572 0,0.62423 10e-4,0.62221 10e-4,0.70766 0,0.70363 0,0.51164 0,0.35584 -0.571,0 -0.523,0 -0.523,0 -0.522,0 -0.523,0 -0.523,0 -0.523,0 -0.523,0 -0.523,0 -0.523,0 -0.523,0 -0.523,0 -0.523,0 -0.523,0 -0.523,0 -0.522,0 -0.523,0 -0.42,0 0,0.37293 0,0.42318 0,0.4242 0,0.42318 0,0.42319 0,0.42218 0,0.42218 0,0.42118 0,0.42117 0,0.42017 0,0.42018 0,0.42017 0,0.41816 0,0.41916 0,0.41816 0,0.41816 0,0.41716 0,0.37192 -0.02,0.33272 -0.168,0.0985 -0.401,0.17691 -0.412,0.18194 -0.523,0.0834 -0.172,0.0593 -0.334,0.23923 -0.439,0.31463 -0.38,0.2724 -0.251,0.35384 -0.091,0.194 -0.037,0.20405 0.029,0.19501 0.137,0.39002 0.037,0.19701 0.021,0.34277 0.023,0.37192 0.025,0.40107 0.025,0.40107 0.026,0.4252 0.027,0.4262 0.027,0.42721 0.02,0.31764 0.025,0.40007 -0.425,10e-4 -0.643,0 -0.644,0.001 -0.644,10e-4 -0.643,10e-4 -0.643,0.001 -0.644,10e-4 -0.644,0 -0.643,10e-4 -0.644,9.9e-4 -0.643,0.001 -0.643,10e-4 -0.644,10e-4 -0.644,10e-4 -0.643,0 -0.644,0.001 -0.643,10e-4 -0.36,10e-4 -0.116,0.5619 -0.103,0.40308 -0.06,0.3287 0.044,0.27744 -0.142,-0.15179 0.25,-1.56408 0.018,-0.13168 0.204,-1.44647 0.385,-0.78606 0.307,-0.3468 0.476,-0.17992 0.437,-0.7921 0.153,-0.73077 0.287,-0.33674 0.09,-0.26336 -0.113,-0.20104 0.271,-0.39504 0.328,-0.60513 0.152,-0.38901 0.383,-0.60211 0.047,-0.13369 -0.034,-0.15077 -0.151,0.12765 -0.161,0.22315 -0.191,0.17592 0.078,-0.21612 0.15,-0.31764 0.341,-0.33372 0.538,-0.3669 1.116,-1.24946 0.42,-0.21612 0.378,-0.52772 0.135,-0.46943 0.037,-1.07957 0.135,-0.57096 0.246,-0.44529 0.294,-0.8132 0.224,-0.36288 0.146,-0.74384 0.159,-0.28246 0.285,-0.1357 0.404,-0.37092 0.607,-0.23019 0.719,-0.48349 0.337,-0.2895 0.225,-0.43224 0.241,-0.86244 0.431,-0.90971 0.221,-0.68755 12.234,-0.0141 0.002,9.9e-4 0,-9.9e-4 0.377,0 0,0.52571 z"
     title="Western Sahara"
     id="EH" />
      <g>
  <path
     d="m 171.557,15.91638 -0.148,0.0201 -0.346,0.15581 -0.047,0.0472 -0.061,0.0905 -0.011,0.0694 -0.049,0.74787 -0.188,-0.0211 -0.229,-0.16284 -0.045,-0.14073 -0.069,-0.0482 -0.164,-0.0181 -0.31,-0.0714 -0.36,0.24627 -0.153,0.40609 -0.031,0.18999 -0.122,0.39805 0.043,0.24527 0.021,0.31664 0.031,0.25833 -0.032,0.1558 -0.069,0.0824 0.02,0.0593 0.062,0.0221 0.197,-0.0703 0.207,0.0703 0.199,0.13369 0.016,0.0865 -0.141,0.0512 -0.333,0.20205 -0.235,0.23421 -0.061,0.21612 -0.159,0.46037 0.022,0.0945 0.077,0.0553 0.542,-0.0492 0.493,-0.18596 0.371,-0.19802 0.117,0.0121 -0.078,0.50662 0.002,0.002 -0.064,0.3096 0.025,0.0522 0.084,0.26939 -0.159,0.49154 -0.176,0.40007 -0.062,0.18898 -0.172,0.42117 -0.176,0.48751 -0.094,0.33574 0.021,0.11862 -0.043,0.61416 0.025,0.17391 -0.206,0.53174 -0.041,0.26236 -0.083,0.35483 -0.142,0.74988 -0.194,0.25129 -0.096,-0.27944 -0.222,-0.80214 -0.157,-0.55085 -0.215,-0.6785 -0.362,-0.82828 -0.033,-0.20004 -0.078,-0.28949 -0.249,-0.75591 -0.204,-0.54682 -0.233,-0.69962 0.289,-0.27743 0.005,-0.22918 0.492,-0.53678 -0.004,-0.0522 -0.131,-0.14274 0.019,-0.0241 0.545,-1.00218 0.352,-0.99514 0.331,-1.39018 0.236,-0.70866 0.2,-0.47043 0.088,-0.39001 0.322,-0.0272 0.24,0.0412 0.288,0.0131 0.23,-0.14675 0.11,-0.43927 0.131,-0.0714 0.067,0.10454 0.068,-0.1156 0.301,-0.194 0.149,-0.12464 0.149,-0.1538 0.08,-0.0553 -0.05,0.20606 -0.04,0.1347 0,0.1759 0.061,0.0965 0.083,0.19099 0.051,0.19098 -0.108,0.15782 0.01,0.16485 0.029,0.13872 0.088,0.16184 -0.158,0.2915 -0.156,0.26738 z"
     title="Palestine"
     id="PS" />
  <path
     d="m 167.519,20.69105 -0.289,0.27743 -0.092,-0.27542 -0.041,-0.0995 0.531,-0.52974 0.253,-0.33373 0.131,0.14274 0.004,0.0533 -0.492,0.53577 -0.005,0.22918 z m 3.32,-2.28179 0.077,0.72575 -0.167,0.30759 -0.095,0.36288 -0.042,0.2734 -0.117,-0.0121 -0.371,0.19801 -0.493,0.18697 -0.542,0.0482 -0.077,-0.0553 -0.022,-0.0945 0.159,-0.46038 0.061,-0.21611 0.235,-0.23321 0.333,-0.20204 0.141,-0.0512 -0.016,-0.0865 -0.199,-0.1337 -0.208,-0.0693 -0.197,0.0693 -0.062,-0.0211 -0.021,-0.0593 0.069,-0.0834 0.032,-0.1548 -0.031,-0.25934 -0.021,-0.31564 -0.043,-0.24526 0.123,-0.39806 0.031,-0.18998 0.153,-0.4061 0.359,-0.24627 0.311,0.0714 0.164,0.0181 0.069,0.0482 0.045,0.14073 0.229,0.16284 0.188,0.0211 0.058,0.52371 -0.105,0.44731 -0.008,0.388 z"
     title="Palestinian"
     id="PS" />
     </g>
  <path
     d="m 196.754,0.80934 0,0.0262 0.093,0.25028 0.231,0.92981 0.132,0.11761 0.15,0.0985 0.106,0.13772 0.042,0.13872 -0.013,0.21511 0.005,0.24929 0.062,0.19098 0.086,0.14474 0.08,0.0724 0.12,0.007 0.144,0.0352 0.097,0.14374 0.309,1.04842 0.029,0.13671 0.13,0.0442 0.213,-0.0201 0.219,0.10856 0.234,0.16887 0.22,0.31865 0.148,0.0512 0.464,-0.0472 0.634,0.0512 0.297,0.16384 -0.03,0.10152 -0.229,0.11259 -0.403,0.13269 -0.119,0.22415 -0.067,0.2905 0.012,0.16284 0.099,0.17893 0.284,0.35583 0.016,0.12867 0.051,0.17892 0.053,0.12264 -0.059,0.23622 -0.258,0.16385 -0.339,0.17691 -0.681,0.78807 -0.051,0.16987 0.004,0.4644 -0.068,0.13269 -0.215,-0.002 -0.168,-0.0242 -0.009,0.16184 -0.107,0.21712 -0.061,0.18796 0.25,0.44329 0.045,0.23522 -0.04,0.21411 -0.232,0.3679 -0.137,0.24728 0.033,0.0553 0.181,0.0985 0.562,0.80717 0.181,0.28347 0.238,-0.0744 0.089,0.005 0.069,0.0452 0.043,0.0955 0,0.12062 -0.06,0.18093 0.303,0.0734 0.109,0.18295 0.353,0.62523 -0.013,0.18596 -0.169,0.29452 -0.002,0.19501 0.036,0.1749 0.055,0.0613 0.521,0.0252 0.221,0.0703 0.541,0.31764 0.616,0.48752 0.503,0.39906 0.429,0.33875 0.46,-0.0241 0.125,0.0613 0.116,0.10555 0.132,0.27843 0.263,0.62825 0.224,0.20808 0.345,0.50158 0.324,0.46944 -0.213,0.63728 -0.209,0.66142 0,0.85039 0,0.45636 0.44,0.0191 0.489,0.0221 0.004,0.54381 0.004,0.54581 0.004,0.62121 0.144,0.0262 0.228,0.13369 0.098,0.20104 0.122,0.10956 0.149,0.0181 0.146,0.0985 0.145,0.17993 0.053,0.13469 -0.039,0.0935 0.031,0.16284 0.101,0.23321 0.123,0.10957 0.191,0.1347 -0.259,0.0774 -0.28,-0.0593 -0.597,-0.2724 -0.194,-0.008 -0.253,0.10353 -0.011,0.0925 -0.631,-0.30457 -0.227,-0.0613 -0.082,-0.006 -0.362,0.003 -0.515,0.0553 -0.303,0.12364 -0.21,0.13067 -0.096,0.12867 -0.034,0.0693 -0.164,0.37896 -0.19,0.48552 -0.197,0.43624 -0.383,0.61317 -0.212,0.28247 -0.455,0.52471 -0.492,0.10554 -1.141,-0.10353 -1.265,-0.1156 -1.259,-0.11359 -0.937,-0.0855 -0.072,-0.0282 -0.927,-0.74987 -0.732,-0.59406 -0.915,-0.74285 -0.934,-0.76092 -0.948,-0.773 -0.689,-0.56291 -0.836,-0.72575 -0.761,-0.66242 -0.601,-0.52471 -0.771,-0.45836 -0.602,-0.35987 -0.878,-0.5237 -0.701,-0.41917 -0.601,-0.35986 -0.925,-0.55486 -0.307,-0.15079 -0.959,-0.18596 -0.909,-0.1568 -0.941,-0.16284 -0.626,-0.10856 0.413,-0.39605 -0.127,-0.35584 -0.301,0.0653 -0.277,0.0844 -0.168,-0.55386 0.214,-0.0694 -0.198,-0.72474 -0.203,-0.74787 -0.196,-0.72474 -0.201,-0.74283 0.795,-0.47748 0.594,-0.35684 0.831,-0.50058 0.801,-0.4835 0.763,-0.46139 0.841,-0.50963 0.752,-0.45635 0.689,-0.18596 0.146,-0.14375 0.314,-0.62523 0.269,-0.53476 0.013,-0.12364 0.001,-0.76093 0.047,-0.89563 0.089,-0.47948 0.155,-0.42519 0.142,-0.31061 0.015,-0.29049 -0.019,-0.29553 -0.147,-0.44731 -0.153,-0.46742 0.017,-0.45033 0.028,-0.24124 0.096,-0.387 0.164,-0.28346 0.176,-0.1749 0.654,-0.18094 0.389,-0.10756 0.52,-0.50259 0.309,-0.29956 0.43,-0.47444 0.317,-0.34981 0.025,-0.12163 0,-0.0472 0.272,-0.0714 0.503,-0.4252 0.297,-0.39705 0.094,-0.0351 0.265,0.12967 0.19,0.0362 0.437,-0.15077 0.26,0.0794 0.219,0.10052 0.122,0.007 0.587,0.24727 0.147,0.0302 0.302,0.0302 0.451,0.0141 0.291,-0.16183 0.205,-0.15581 0.144,0.004 0.14,0.0372 0.118,0.0663 0.099,0.1166 0.047,0.16687 -0.019,0.53174 0.044,0.13972 0.08,0.10052 0.101,0.0191 0.123,-0.1156 0.214,-0.16786 0.264,-0.18295 0.196,-0.16787 0.113,-0.0633 0.177,0.009 0.173,0.0292 z"
     title="Iraq"
     id="IQ" />
  <path
     d="m 180.982,17.94688 -0.416,0.387 -0.098,0.0422 -0.541,0.15983 -1.106,0.32769 -0.741,0.21913 -0.948,0.27945 -0.787,0.2332 -0.779,0.22918 -0.722,0.21311 0.412,0.44831 0.629,0.68453 0.42,0.45536 0.495,0.58502 0.442,0.5217 0.469,0.55184 -0.329,0.18697 -0.542,0.30759 -0.055,0.0563 -0.047,0.0573 -0.224,0.54783 -0.176,0.43122 -0.061,0.0532 -0.756,0.15882 -0.765,0.15882 -0.482,0.10152 -0.145,0.11058 -0.314,0.53577 -0.325,0.55085 -0.542,0.45032 -0.602,0.49857 -0.149,0.0322 -0.435,-0.0764 -0.744,-0.13068 -0.719,-0.12665 -0.492,-0.0855 -0.597,-0.10554 0.087,-0.42118 -0.024,-0.22817 0.142,-0.74988 0.083,-0.35483 0.041,-0.26236 0.206,-0.53174 -0.025,-0.17391 0.043,-0.61416 -0.021,-0.11862 0.094,-0.33574 0.176,-0.48751 0.172,-0.42117 0.062,-0.18898 0.176,-0.40007 0.159,-0.49154 -0.084,-0.26939 -0.025,-0.0522 0.064,-0.3096 -0.002,-0.002 0.078,-0.50662 0.042,-0.27341 0.095,-0.36287 0.168,-0.3076 -0.078,-0.72474 0.009,-0.39202 0.105,-0.44631 -0.058,-0.5237 0.049,-0.74787 0.011,-0.0694 0.061,-0.0905 0.047,-0.0472 0.346,-0.15581 0.148,-0.0201 0.302,0.0704 0.173,0.15681 0.289,0.44328 0.45,0.12867 0.181,0.12565 0.246,0.23421 0.301,0.0855 0.952,0.14575 0.759,-0.49254 0.642,-0.41715 0.729,-0.47446 0.496,-0.32367 0.846,-0.55185 0.558,-0.3488 0.733,-0.46138 0.724,-0.45535 0.201,0.74283 0.196,0.72474 0.203,0.74787 0.198,0.72474 -0.214,0.0694 0.168,0.55386 0.277,-0.0844 0.301,-0.0653 0.127,0.35584 z"
     title="Jordan"
     id="JO" />
  <path
     d="m 205.772,24.96513 -0.014,0.11962 0.09,0.35684 0.201,0.38901 0.165,0.31463 0.021,0.14776 -0.151,-0.0211 -0.115,-0.0593 -0.221,-0.0623 -0.427,0.41715 -0.258,0.22718 -0.007,0.0774 0.344,0.0875 0.253,-0.002 0.176,-0.0613 0.149,0.0975 0.098,0.25733 0.039,0.20908 0.234,0.74284 0.194,0.25029 0.242,0.44229 0.09,0.22918 0.052,0.19199 0.148,0.28347 -0.488,0.007 -0.615,0.0101 -0.499,0.006 -0.563,0.007 -0.248,-0.30256 -0.083,-0.33171 -0.09,-0.34076 -0.247,-0.48651 -0.826,-0.11761 -0.439,-0.0633 -0.723,-0.0925 -0.542,-0.0694 0.456,-0.52471 0.212,-0.28246 0.383,-0.61216 0.197,-0.43726 0.19,-0.48551 0.164,-0.37795 0.034,-0.0693 0.095,-0.12866 0.21,-0.13168 0.303,-0.12364 0.515,-0.0542 0.362,-0.003 0.082,0.006 0.228,0.0613 0.629,0.30257 z m 0.833,1.15899 -0.161,0.0724 -0.108,-0.0312 -0.104,-0.17389 -0.171,-0.43224 0.093,-0.16184 -0.003,-0.0693 0.019,-0.0522 0.053,-0.0332 0.055,-0.20405 0.074,-0.0623 0.12,0.13771 0.338,0.49757 -0.002,0.20305 -0.02,0.0814 -0.183,0.22818 z"
     title="Kuwait"
     id="KW" />
  <path
     d="m 171.787,13.58032 -0.08,0.0553 -0.149,0.1538 -0.149,0.12464 -0.301,0.194 -0.068,0.1156 -0.067,-0.10454 -0.131,0.0714 -0.11,0.43927 -0.23,0.14675 -0.288,-0.0131 -0.24,-0.0413 -0.322,0.0272 0.131,-0.25532 0.136,-0.33272 0.134,-0.44832 0.237,-0.37292 0.491,-1.27057 0.284,-0.51567 0.101,-0.73379 0.439,-0.64231 0.328,-0.19099 0.159,-0.18395 -0.004,-0.27944 0.49,0.002 0.316,-0.0141 0.091,-0.15681 0.247,0.0714 0.137,0.15078 -0.124,0.15983 -0.175,0.18194 0.01,0.0472 0.131,0.0151 0.222,0.0985 0.136,0.1156 0.227,0.7177 -0.14,0.29452 -0.218,0.26336 -0.097,0.0231 -0.191,0.13068 -0.16,0.17892 -0.056,0.11259 0.012,0.10554 0.226,0.13168 0.007,0.0532 -0.047,0.0422 -0.183,-0.0292 -0.236,-0.0141 -0.139,0.001 -0.161,0.0262 -0.206,0.16083 -0.092,0.10655 -0.049,0.0683 -0.074,0.21813 0.083,0.14978 0.154,0.0855 0.022,0.0432 -0.035,0.0754 -0.153,0.0945 -0.115,0.11559 -0.033,0.11761 z"
     title="Lebanon"
     id="LB" />
  <path
     d="m 141.705,19.49889 -0.108,0.0925 -0.154,0.19702 -0.097,0.1749 -0.26,0.28547 -0.217,0.30458 0.021,0.4453 0.049,0.45233 0.146,0.44128 0.125,0.49054 -0.036,0.31965 -0.107,0.39303 -0.128,0.32769 -0.424,0.67248 -0.065,0.16083 0.024,0.22617 0.258,0.79611 0.02,0.25029 0.154,0.76998 0.141,0.62523 0.156,0.49154 0.024,0.13469 0,0.72073 0,0.71971 0,0.71772 0,0.7167 0,0.71469 0,0.71369 0,0.71168 0,0.71067 0,0.70865 0,0.70766 0,0.70565 0,0.70565 0,0.70262 0,0.70162 0,0.70063 0,0.69961 0,0.6976 0,0.6966 0,0.6956 0,0.69358 0,0.69358 0,0.69158 0,0.68956 0,0.68956 0,0.68755 0,0.68655 0,0.68554 0,0.68454 0,0.68252 0,0.68253 0,0.68152 0,0.67951 0,1.50477 -0.001,1.49975 0,1.49472 -0.001,1.4897 -0.009,0.004 -0.008,0.006 -0.009,0.005 -0.009,0.006 -0.692,-10e-4 -0.692,0 -0.693,0 -0.692,-9.9e-4 0,0.37291 0,0.37193 0,0.37091 0,0.37192 -1.345,-0.70464 -1.344,-0.70464 -1.345,-0.70664 -1.344,-0.70766 -1.345,-0.70866 -1.344,-0.70967 -1.345,-0.71067 -1.344,-0.71168 -1.345,-0.71368 -1.344,-0.7147 -1.345,-0.71468 -1.344,-0.71671 -1.345,-0.71871 -1.344,-0.71972 -1.345,-0.71972 -1.345,-0.72173 -0.928,-0.49958 -1.002,0.48752 -0.785,0.38197 -1.034,0.5016 0,0 -1.188,0.65036 -0.912,0.49857 -0.043,-0.004 -0.041,-0.0121 -0.949,-0.84636 -0.741,-0.66243 -0.329,-0.18596 -1.397,-0.33875 -1.389,-0.33674 -1.462,-0.35584 -0.266,-0.5418 -0.297,-0.60612 -0.401,-0.75892 -0.245,-0.46541 -0.082,-0.0724 -1.121,-0.36789 -1.185,-0.36188 -0.693,0.21913 -0.122,-0.0161 -0.196,-0.13771 -0.197,-0.18797 -0.104,-0.26236 -0.278,-0.35181 -0.257,-0.80717 -0.025,-0.64333 -0.051,-0.22818 -0.617,-0.90869 -0.561,-0.82727 -0.373,-0.55286 -0.072,-0.2503 0.043,-0.30758 0.15,-0.27643 0.543,-0.32669 0.49,-0.35684 0.067,-0.24728 0.031,-0.68253 -0.16,-0.21309 -0.118,-0.4061 -0.12,-0.54984 -0.014,-0.35282 0.218,-0.70264 0.255,-0.7368 -0.162,-0.81823 -0.12,-1.64751 0.075,-1.30273 -0.061,-0.47445 -0.043,-0.20004 -0.167,-0.61719 -0.205,-0.63829 -0.092,-0.22415 -0.263,-0.51567 -0.436,-0.64031 -0.226,-0.39403 0.31,-0.20808 0.275,-0.16284 0.335,-0.17189 0.475,-0.19501 0.246,-0.14676 0.105,-0.12363 0.357,-0.50461 0.186,-0.27945 0.254,-0.38297 0.111,-0.26739 0.003,-0.24727 -0.039,-0.29955 -0.198,-0.71771 -0.162,-0.69961 0.126,-0.2704 0.101,-0.12867 0.221,-0.3297 0.088,-0.0663 0.477,-0.10253 0.19,-0.21913 0.146,-0.27542 0.037,-0.14476 0.208,-0.15178 0.249,-0.15178 0.153,-0.19702 0.502,-0.30558 0.458,-0.27844 0.533,-0.29352 0.412,-0.22716 0.087,-0.19904 -0.006,-0.17188 -0.224,-0.39203 0,-0.4644 0.015,-0.38599 0.022,-0.22817 0.099,-0.63629 0.006,-0.0895 0.428,0.2121 0.439,0.0844 1.309,0.78707 0.413,0.0985 0.916,0.0935 1.079,-0.32167 0.408,-0.0583 0.71,0.30257 0.313,0.0855 0.526,0.0231 0.899,0.27341 0.229,0.0955 0.524,0.43626 0.251,0.13067 1.861,0.39906 0.254,0.26436 0.259,0.50361 0.011,0.62522 0.143,0.45235 0.231,0.58602 0.279,0.41414 0.309,0.34478 0.355,0.21511 0.816,0.31764 0.92,0.12164 0.928,0.0412 1.593,0.43727 1.351,0.5036 0.333,0.24828 0.677,0.24325 1.345,1.1801 0.749,0.4071 0.525,0.0784 0.471,-0.0714 0.837,-0.40811 0.346,-0.24326 0.842,-1.01926 0.277,-0.53275 0.11,-0.37695 -0.027,-0.38298 -0.105,-0.34478 -0.236,-0.36187 -0.165,-0.47847 -0.097,-0.86346 0.132,-0.6001 0.161,-0.35986 0.254,-0.3679 0.699,-0.70464 0.703,-0.49758 1.239,-0.65136 0.719,-0.007 0.298,-0.0724 0.592,-0.46138 0.24,-0.0171 0.332,0.11258 0.976,-0.0322 0.43,0.12868 0.513,0.28747 0.648,0.17792 0.457,0.17792 0.487,0.22818 0.11,0.56794 -0.054,0.16887 -0.012,0.22013 0.505,0.39002 1.435,0.18294 0.283,0.10455 0.395,0.29854 0.254,0.0915 0.983,0.0422 0.573,-0.0633 0.546,0.10455 0.202,0.10051 0.209,0.23321 0.253,0.56492 z"
     title="Libya"
     id="LY" />
  <path
     d="m 64.891,7.89796 0.081,0.25432 0.166,0.20304 0.592,0.4634 0.351,0.28547 0.01,0.0985 -0.113,0.23421 -0.048,0.16083 0.092,0.17189 0.217,0.20707 0.017,0.0995 -0.052,0.1156 -0.112,0.22215 0.238,0.65136 0.04,0.63026 -0.062,0.44731 0.002,0.25833 0.031,0.21914 0.202,0.5056 -0.135,0.83532 0.152,0.45435 0.209,0.3679 0.114,0.65539 0.168,0.3106 0.275,0.27241 0.157,0.0915 0.303,0.22516 0.217,0.18697 0.127,0.27944 -0.272,0.22919 -0.218,0.20506 -0.062,0.22114 0.102,0.35383 0,0.18998 -0.139,0.0603 -0.566,-0.0201 -0.444,-0.0151 -0.51,-0.0171 -0.718,-0.0342 -0.444,-0.0211 -0.61,-0.0282 -0.21,0.0141 -0.559,0.0985 -0.395,0.0703 -0.067,0.0191 -0.123,0.0875 -0.085,0.26034 -0.076,0.29653 -0.082,0.13169 -1.185,0.4282 -0.463,0.0593 -0.268,-0.0443 -0.191,0.0352 -0.164,0.0915 -0.056,0.1377 -0.008,0.17692 0.035,0.17792 0.114,0.24728 0.02,0.24728 -0.073,0.1749 -0.017,0.1749 -0.034,0.18898 0.061,0.10253 0.114,0.0161 0.115,0.0865 0.162,0.0784 0.134,0.14978 -0.006,0.2131 -0.112,0.12062 -0.099,0.0633 -0.444,0.0563 -0.351,0.0452 -0.459,0.33975 -0.489,0.36187 -0.578,0.23923 -0.255,0.0673 -0.445,0.17189 -0.533,0.28246 -0.263,0.45233 -0.331,0.52069 -0.319,0.34881 -0.435,0.3307 -0.406,0.12565 -0.51,0.15883 -0.643,0.12163 -0.455,0.0403 -0.136,0.0262 -0.401,0.008 -0.196,-0.0252 -0.147,-0.0141 -0.059,0.0372 -0.02,0.0814 -0.008,0.18697 -0.027,0.2141 -0.127,0.17993 -0.09,0.0804 -0.105,0.0331 -0.337,-0.0482 -0.282,-0.0573 -0.671,-0.0764 -0.134,0.0181 -0.05,0.0221 -0.209,0.12263 -0.322,0.25733 -0.219,0.22517 -0.163,0.10554 -0.39,0.0553 -0.17,0.0824 -0.726,0.56191 -0.155,0.1367 -0.747,0.48752 -0.211,0.16183 -0.165,0.15982 -0.446,0.35987 -0.285,0.15781 -0.052,0.0935 -0.014,0.21914 0,0.4845 0,0.4644 0,0.67348 0,0.67348 0,0.774 -0.377,0 0,0.001 -0.002,-0.001 -12.234,0.0141 0.004,-0.0121 0.38,-0.36186 0.257,-0.45837 0.436,-0.20405 0.912,-0.0985 1.355,-0.38096 1.216,-0.57598 0.344,-0.22918 0.368,-0.46038 0.612,-0.6001 1.143,-0.72173 0.526,-0.40409 0.802,-1.01424 0.533,-0.84134 0.443,-0.5428 0.306,-0.4825 0.215,-0.48953 0.121,-0.79008 -0.081,-0.3096 -0.338,-0.50661 -0.226,-0.13571 -0.061,-0.23923 0.121,-0.42218 -0.002,-0.72776 0.068,-1.16603 0.376,-0.94388 0.919,-1.24141 0.171,-0.51164 0.105,-0.8142 0.009,-0.2885 1.15,-1.162 0.673,-0.89362 0.234,-0.21913 0.594,-0.40911 2.074,-0.89563 1.172,-0.64232 0.684,-0.46842 0.408,-0.55587 1.13,-2.19032 1.109,-3.11208 0.093,-0.36186 0.496,-0.10454 0.351,-0.0452 0.283,-0.11459 0.35,-0.23521 0.336,0.0945 -0.168,0.15983 0,0.386 0.238,0.45133 0.414,0.50661 0.752,0.64232 0.586,0.25733 0.837,0.1548 0.976,-0.28146 0.546,-0.005 0.265,-0.12162 0.289,0.17791 0.549,0.0573 0.53,-0.0935 0.401,-0.26939 0.255,-0.3106 0.04,0.15279 0.012,0.16485 0.078,0.0965 0.158,0.39403 0.083,0.1538 0.305,-0.0252 0.265,0.0774 0.598,-0.0371 z"
     title="Morocco"
     id="MA" />
  <path
     d="m 57.586,40.74968 -0.983,0 -1.313,9.9e-4 -0.895,0 -0.919,0 -0.861,0 0.075,0.70464 0.08,0.76797 0.08,0.76595 0.08,0.76496 0.08,0.76294 0.08,0.76194 0.08,0.75992 0.08,0.75792 0.08,0.75691 0.08,0.75489 0.08,0.7539 0.08,0.7539 0.08,0.75188 0.08,0.75088 0.08,0.74988 0.08,0.74786 0.08,0.74686 0.08,0.74585 0.08,0.74384 0.08,0.74284 0.08,0.74183 0.08,0.74083 0.08,0.73881 0.08,0.73782 0.08,0.7368 0.08,0.73581 0.08,0.73479 0.08,0.73379 0.08,0.73279 0.08,0.73178 0.08,0.73078 0.08,0.72976 0.08,0.72876 0.078,0.70565 0.334,0.36991 0.42,0.4644 -0.123,0.6574 -0.146,0.78304 -0.16,0.85341 -0.593,0 -0.573,0 -0.572,0 -0.572,0 -0.572,0 -0.573,0 -0.572,0 -0.572,0 -0.572,0 -0.572,0 -0.573,0 -0.572,0 -0.572,0 -0.572,0 -0.573,0 -0.572,0 -0.572,0 -0.533,0 -0.328,-0.0201 -0.117,-0.0663 -0.042,-0.44128 -0.098,0.0282 -0.116,0.12966 -0.06,0.14073 0.021,0.18395 -0.019,0.15581 -0.368,0.0613 -0.497,0.10454 -0.523,0.0804 -0.528,-0.0292 -0.18,-0.0362 -0.191,-0.0583 -0.42,-0.0633 -0.229,-0.005 -0.262,0.0141 -0.309,0.0351 -0.099,0.0814 -0.233,0.3287 -0.226,0.38096 -0.147,-0.002 -0.166,-0.20908 -0.455,-0.39404 -0.551,-0.51868 -0.251,-0.25733 -0.133,-0.0332 -0.264,0.18495 -0.222,0.17792 -0.236,0.25131 -0.107,0.24124 -0.085,0.28447 -0.038,0.33473 -0.086,0.39001 -0.191,0.31463 -0.226,0.23723 -0.168,0.11157 -0.065,0.0613 -0.494,-0.18496 -0.062,-0.0231 -0.298,-0.20908 -0.144,-0.24829 -0.235,-0.18695 -0.326,-0.12565 -0.212,-0.14275 -0.099,-0.16082 -0.12,-0.10655 -0.127,-0.0553 -0.012,-0.0573 0.03,-0.0794 -0.03,-0.14676 -0.191,-0.3277 -0.178,-0.15078 -0.152,0.0242 -0.086,-0.0403 -0.052,-0.0724 -0.021,-0.10555 -0.104,-0.0915 -0.18,-0.0403 -0.145,-0.24325 -0.109,-0.44731 -0.142,-0.3488 -0.174,-0.2503 -0.125,-0.0935 -0.092,-0.0171 -0.031,-0.0392 -0.025,-0.0724 -0.136,-0.0262 -0.191,0.0754 -0.172,-0.0252 -0.084,-0.12264 -0.117,-0.0111 -0.149,0.10052 -0.165,-0.0292 -0.18,-0.15983 -0.1,-0.15882 -0.019,-0.15782 -0.311,-0.31462 -0.602,-0.47244 -0.656,-0.22115 -0.71,0.0292 -0.398,-0.0221 -0.087,-0.0744 -0.087,0.006 -0.088,0.0865 -0.093,0.0191 -0.099,-0.0482 -0.062,0.0361 -0.024,0.12063 -0.25,0.0623 -0.475,0.001 -0.384,0.0744 -0.292,0.14675 -0.414,0.0633 -0.536,-0.0201 -0.323,-0.0542 -0.11,-0.0865 -0.154,-0.0211 -0.198,0.0462 -0.178,0.23421 -0.157,0.42118 -0.129,0.24024 -0.103,0.0593 -0.11,0.31362 -0.062,0.52472 -0.093,0.23018 -0.001,-1.30876 0.153,-0.48953 0.05,-0.43022 0.328,-0.95192 0.391,-0.78003 0.361,-1.03736 0.136,-1.0072 -0.046,-0.98811 -0.107,-0.88054 -0.183,-0.58302 -0.177,-0.84537 -0.261,-0.4463 -0.478,-0.39002 -0.107,-0.22817 0.111,-0.0855 0.291,-0.0583 0.185,-0.30457 -0.392,0.11761 0.453,-0.93483 0.141,-0.63729 -0.022,-0.41917 0.086,-0.25934 -0.346,-0.5619 -0.269,-0.70866 -0.139,-0.11158 -0.144,-0.0593 -0.013,0.16687 -0.078,0.14877 -0.168,-0.0895 -0.297,-0.51566 -0.415,-0.84034 -0.146,-0.0865 -0.121,0.1156 -0.076,0.11057 -0.14,0.70163 -0.045,-0.27844 0.061,-0.3277 0.103,-0.40409 0.116,-0.56189 0.36,0 0.644,-10e-4 0.644,-0.001 0.644,0 0.644,-10e-4 0.644,-10e-4 0.643,-0.001 0.644,0 0.644,-10e-4 0.644,-9.9e-4 0.644,0 0.644,-10e-4 0.644,-10e-4 0.643,0 0.644,-0.001 0.644,-10e-4 0.643,0 0.425,0 -0.025,-0.40006 -0.02,-0.31764 -0.027,-0.42721 -0.027,-0.42519 -0.026,-0.42621 -0.025,-0.40107 -0.025,-0.40107 -0.023,-0.37192 -0.021,-0.34177 -0.037,-0.19702 -0.137,-0.39101 -0.029,-0.19401 0.037,-0.20506 0.091,-0.193 0.251,-0.35382 0.38,-0.27241 0.438,-0.31462 0.334,-0.24024 0.171,-0.0593 0.523,-0.0834 0.412,-0.18193 0.401,-0.17692 0.168,-0.0985 0.02,-0.33272 0,-0.37192 0,-0.41715 0,-0.41816 0,-0.41816 0,-0.41917 0,-0.41917 0,-0.41916 0,-0.42017 0,-0.42017 0,-0.42017 0,-0.42117 0,-0.42219 0,-0.42218 0,-0.42319 0,-0.42318 0,-0.42419 0,-0.42419 0,-0.37192 0.42,0 0.523,0 0.522,0 0.523,0 0.523,0 0.523,0 0.523,0 0.523,0 0.523,0 0.523,0 0.523,0 0.523,0 0.523,0 0.523,0 0.522,0 0.523,0 0.523,0 0.571,0 0,-0.35584 0,-0.51164 -0.001,-0.70364 0,-0.70766 -10e-4,-0.62322 0,-0.62422 -10e-4,-0.52572 0.528,0.3488 0.528,0.34881 0.528,0.3488 0.528,0.3478 0.528,0.34779 0.528,0.34679 0.527,0.34679 0.528,0.3468 0.528,0.34679 0.528,0.34578 0.528,0.34579 0.528,0.34478 0.528,0.34478 0.528,0.34478 0.528,0.34478 0.527,0.34378 0.442,0.28749 0.679,0.46339 0.633,0.43122 0.625,0.43124 z m -32.417,16.0479 -0.18,0.2895 -0.08,-0.11057 -0.031,-0.18999 0.16,-0.2724 0.076,-0.14073 0.139,-0.0512 -0.084,0.47546 z"
     title="Mauritania"
     id="MR" />

  <path
     d="m 229.12,38.71617 -0.055,0.0714 -0.081,0.007 -0.186,-0.0613 -0.109,-0.14174 0.021,-0.17288 0.006,-0.31966 0.053,-0.30156 -0.015,-0.31965 -0.144,-0.0643 -0.101,0.0181 0.235,-0.45133 0.093,-0.0693 0.087,0.0292 0.217,-0.0482 0.114,-0.24527 0.091,-0.13369 0.097,0.0161 0.047,0.0754 -0.034,0.37293 -0.004,0.3106 -0.12,0.9489 -0.124,0.16385 -0.063,0.13269 -0.025,0.18294 z m -0.046,1.28967 -0.116,0.0834 -0.083,-0.0141 0.017,-0.16586 0.05,-0.11559 0.12,0.009 0.029,0.0693 -0.017,0.1337 z m -8.969,25.81737 -0.17,-0.386 -0.17,-0.38599 -0.171,-0.38599 -0.17,-0.387 -0.119,-0.2714 -0.2,-0.0955 -0.122,-0.28648 -0.124,-0.29352 -0.124,-0.29351 -0.124,-0.29352 -0.124,-0.29351 -0.125,-0.29452 -0.124,-0.29453 -0.124,-0.29452 -0.124,-0.29452 -0.125,-0.29452 -0.124,-0.29452 -0.124,-0.29553 -0.124,-0.29553 -0.124,-0.29552 -0.125,-0.29553 -0.124,-0.29553 -0.124,-0.29552 0.396,-0.13973 0.482,-0.16987 0.483,-0.16988 0.482,-0.16988 0.483,-0.16987 0.482,-0.16988 0.482,-0.17089 0.483,-0.16987 0.482,-0.16988 0.483,-0.17088 0.482,-0.17089 0.482,-0.16987 0.483,-0.17089 0.482,-0.17088 0.482,-0.17088 0.483,-0.17089 0.482,-0.17088 0.299,-0.10554 0.124,-0.39806 0.103,-0.33071 0.103,-0.3307 0.103,-0.33172 0.104,-0.33172 0.103,-0.33171 0.103,-0.33171 0.103,-0.33272 0.104,-0.33272 0.103,-0.33272 0.103,-0.33272 0.103,-0.33372 0.103,-0.33373 0.104,-0.33372 0.103,-0.33373 0.103,-0.33472 0.103,-0.33473 0.095,-0.30659 -0.178,-0.29552 -0.238,-0.39806 -0.25,-0.41615 -0.234,-0.39203 -0.171,-0.28547 -0.206,-0.34478 0.022,-0.44329 -0.005,-0.22215 0.021,-0.34076 0.197,-0.47344 0.233,-0.60312 0.17,-0.40107 0.147,-0.34981 0.118,-0.28045 0.065,-0.2895 -0.035,-0.20404 -0.077,-0.0744 -0.065,-0.0965 0.223,-0.1548 0.418,-0.10052 0.231,0.0211 0.322,-0.0744 0.256,-0.0673 0.02,-0.0905 -0.072,-0.15279 -0.106,-0.22315 -0.361,-0.0231 -0.109,-0.0623 0.126,-0.32971 -0.005,-0.10453 -0.048,-0.12364 -0.053,-0.20708 0.026,-0.26738 0.074,-0.18194 10e-4,-0.14676 -0.035,-0.30156 0.011,-0.26838 0.076,-0.13369 0.135,-0.12465 0.127,-0.0633 0.132,0.004 0.105,0.0532 0.045,0.14073 -0.028,0.0975 -0.075,0.0131 -0.026,0.0412 0.107,0.18798 0.155,0.18394 0.12,-0.0312 0.134,-0.14474 0.142,-0.1166 0.177,-0.10354 0.129,-0.20004 0.11,-0.12966 0.098,-0.0181 0.286,0.8122 0.424,0.75892 0.374,0.41816 0.389,0.56693 0.591,0.52069 0.271,0.17792 1.099,0.36489 0.601,0.1367 0.828,0.13067 0.573,0.28347 0.192,0.0181 0.3,-0.0844 0.219,0.007 0.548,0.386 0.161,0.36589 0.228,0.19299 0.201,0.30357 0.131,0.31764 0.463,0.48351 0.326,0.5438 0.332,0.40208 0.297,0.25029 0.45,0.0985 0.358,0.11258 0.04,0.26839 -0.037,0.34981 -0.068,0.25833 -0.334,0.5026 -0.08,0.3096 -0.378,0.51064 -0.41,0.85541 -0.188,0.19099 -0.661,0.44028 -0.486,0.52973 -0.576,0.91875 -0.438,0.90869 -0.168,0.2905 -0.353,0.0603 -0.231,-0.0252 -0.16,-0.0854 0.063,-0.24828 0.038,-0.27643 -0.213,0.0292 -0.187,0.0573 -0.437,0.6785 -0.24,0.29754 -0.051,0.37695 -0.116,0.48651 -0.171,0.44732 -0.076,0.37593 0.003,0.21311 0.128,0.51968 0.009,0.53175 0.074,0.31865 0.06,0.38196 -0.205,0.11761 -0.176,0.0583 -0.696,0.0422 -0.705,0.12264 -0.616,0.22114 -0.368,0.22014 -0.479,0.49154 -0.293,1.24543 -0.469,0.52471 -0.318,0.10957 -0.765,0.0462 -1.077,0.14474 -0.378,0.12565 -0.628,0.75792 -0.049,0.23823 0.121,0.17189 0.04,0.18998 -0.057,0.17792 -0.285,0.47948 -0.308,0.34779 -0.82,0.21813 -0.301,-0.12968 -0.275,-0.0653 -0.532,-0.007 -0.866,0.0824 -0.319,0.25733 -0.503,0.18194 -0.464,0.28045 -0.876,0.10655 -0.601,0.22617 z m 15.818,-10.55453 -0.177,0.0453 -0.051,-0.0211 0.001,-0.37795 0.412,-0.47645 0.271,-0.55085 0.187,0.49254 -0.325,0.27543 -0.176,0.47043 -0.142,0.14273 z"
     title="Oman"
     id="OM" />
  <path
     d="m 215.004,41.94988 -0.253,0.0633 -0.237,0.0673 -0.198,-0.002 -0.16,-0.0262 -0.106,-0.0653 -0.204,-0.26135 -0.144,-0.33876 0.089,-0.18897 0.03,-0.11761 -0.195,-0.89462 -0.063,-0.68856 0.023,-0.14072 0.111,-0.16284 0.186,-0.35986 0.099,-0.34679 0.278,-0.80215 0.295,-0.3096 0.432,-0.22717 0.356,0.44429 0.432,0.33876 0.083,0.37895 -0.127,0.3086 -0.118,0.48852 0.071,0.22517 0.026,0.195 0.117,0.32669 0.114,0.42319 0.019,0.29452 -0.061,0.2724 -0.151,0.22919 -0.296,0.68755 -0.088,0.0714 z"
     title="Qatar"
     id="QA" />
  <path
     d="m 201.711,27.82491 0.542,0.0693 0.723,0.0925 0.439,0.0633 0.826,0.11761 0.247,0.48651 0.09,0.34076 0.083,0.33171 0.248,0.30257 0.563,-0.007 0.499,-0.006 0.615,-0.0101 0.488,-0.007 0.157,0.30055 0.069,0.29955 0.29,0.70866 0.414,0.55185 0.099,0.20104 0.066,0.30256 -0.072,0.11259 -0.028,0.12966 0.307,0.30156 0.506,0.25532 0.198,0.0643 0.225,0.11257 -0.175,0.17391 0.299,0.40207 0.347,0.40911 0.372,0.0925 0.502,0.61719 0.757,0.39906 0.459,0.5227 -0.043,0.0101 -0.135,-0.0532 -0.169,-0.0714 -0.051,0.0643 0.009,0.21914 0.045,0.25732 0.234,0.22216 0.208,0.15982 0.081,0.30256 -0.164,0.65036 -0.057,0 -0.11,-0.0563 -0.117,-0.0131 -0.063,0.0371 0.139,0.46742 0.139,0.35785 0.166,0.28346 0.139,0.41414 0.119,0.17692 0.487,0.43927 0.15,0.36689 0.139,0.68252 0.306,0.37997 0.165,0.29251 0.221,0.24828 0.144,0.33876 0.204,0.26034 0.106,0.0653 0.159,0.0272 0.198,10e-4 0.237,-0.0673 0.253,-0.0633 0.197,0.13168 0.204,-0.0201 0.021,0.12264 -0.137,0.16686 -0.168,0.42017 0.239,0.0663 0.229,0.0332 0.162,0.0673 0.095,0 0,0.0875 0.011,0.39806 0.057,0.15178 0.104,0.1347 0.154,0.20104 0.154,0.20104 0.154,0.20104 0.154,0.20104 0.154,0.20104 0.155,0.20103 0.154,0.20004 0.154,0.20103 0.154,0.20004 0.154,0.20003 0.154,0.20003 0.154,0.20004 0.154,0.20003 0.154,0.20003 0.155,0.20004 0.154,0.19902 0.127,0.16486 0.236,0.0312 0.075,0.0101 0.213,0.0282 0.33,0.0433 0.428,0.0573 0.507,0.0673 0.565,0.0744 0.605,0.0804 0.624,0.0824 0.625,0.0824 0.604,0.0804 0.565,0.0754 0.507,0.0663 0.429,0.0573 0.33,0.0432 0.213,0.0282 0.075,0.0101 0.223,0.0292 0.042,-0.007 0.187,-0.24427 0.206,0.34478 0.171,0.28548 0.234,0.39202 0.25,0.41615 0.238,0.39806 0.178,0.29553 -0.095,0.30658 -0.103,0.33473 -0.103,0.33473 -0.103,0.33372 -0.104,0.33373 -0.103,0.33371 -0.103,0.33373 -0.103,0.33272 -0.103,0.33272 -0.104,0.33272 -0.103,0.33272 -0.103,0.33172 -0.103,0.33171 -0.104,0.33171 -0.103,0.33171 -0.103,0.33071 -0.103,0.33071 -0.124,0.39805 -0.299,0.10556 -0.482,0.17088 -0.483,0.17088 -0.482,0.17088 -0.482,0.17088 -0.483,0.17088 -0.482,0.16988 -0.482,0.17088 -0.483,0.17089 -0.482,0.16987 -0.483,0.16988 -0.482,0.17088 -0.482,0.16988 -0.483,0.16988 -0.482,0.16988 -0.483,0.16988 -0.482,0.16988 -0.396,0.13972 -0.659,0.0935 -0.64,0.0905 -0.72,0.10253 -0.865,0.12364 -0.679,0.0965 -0.99,0.14073 -0.889,0.12565 -0.833,0.11861 -0.833,0.11862 -0.709,0.10051 -0.423,0.11661 -0.497,0.25632 -0.763,0.39303 -0.778,0.39907 -0.403,0.20707 -0.422,0.53073 -0.214,0.2684 -0.386,0.4855 -0.292,0.36589 -0.349,0.43726 -0.152,0.388 -0.235,0.5991 -0.203,0.15078 -0.332,0.195 -0.302,0.13872 -0.471,-0.0201 -0.269,-0.36791 -0.285,-0.39101 -0.143,-0.15681 -0.128,-0.008 -0.473,0.0492 -0.57,0.0603 -0.672,-0.0633 -0.775,-0.0744 -0.727,-0.0693 -0.362,-0.0522 -0.477,-0.25331 -0.123,-0.0502 -0.125,-0.0121 -0.566,-0.006 -0.561,-0.006 -0.562,0.0804 -0.538,-0.0292 -0.558,0.0462 -0.196,0.0965 -0.218,-0.005 -0.136,0.0855 -0.12,0.0403 -0.142,-0.0734 -0.174,0.0161 -0.256,-0.0633 -0.167,-0.16586 -0.158,-0.14575 -0.163,-0.0804 -0.182,-0.0502 -0.158,-10e-4 -0.202,0.0885 -0.123,0.0855 -0.312,0.28648 -0.013,0.10254 0.142,0.17088 -0.043,0.0804 -0.184,0.10052 -0.057,0.2704 -0.027,0.14776 -0.027,0.35382 0.082,0.27844 0.109,0.10253 0.005,0.11962 -0.06,0.23923 -0.169,0.0734 -0.124,0.22717 -0.076,0.10554 -0.132,0.12062 -0.525,0.40108 -0.026,-0.2332 -0.167,-0.3458 -0.012,-0.24425 -0.078,-0.24527 -0.144,-0.18898 -0.266,-0.19701 -0.024,-0.26739 -0.194,-0.26436 -0.257,-0.2131 -0.143,-0.39403 -0.108,-0.52372 -0.678,-0.68956 -0.848,-0.63728 -0.258,-0.35886 -0.422,-0.73278 -0.213,-0.58 -0.567,-0.66846 -0.024,-0.25733 -0.084,-0.31361 -0.131,-0.34981 -0.079,-0.27543 -0.569,-1.21226 -0.184,-0.193 -0.158,-0.2714 -0.041,-0.21008 -0.05,-0.11459 -0.402,-0.19903 -0.375,-0.51065 -1.127,-0.8142 -0.552,-0.0814 -0.437,-0.2915 -0.322,-0.38097 -0.343,-0.6574 -0.604,-0.71167 -0.512,-1.01123 0.161,-0.36891 -0.01,-0.25933 -0.158,-0.43727 -0.171,-0.33774 -0.118,-0.31965 0.093,-0.45938 0.036,-0.51465 0.101,-0.27342 0.073,-0.30055 -0.095,-0.60512 -0.17,-0.32468 0.017,-0.21612 -0.193,-0.10554 -0.156,-0.23522 0.163,0 -0.296,-0.32669 -0.109,-0.18193 -0.112,-0.4443 -0.143,-0.33976 -0.459,-0.77198 -0.22,-0.47144 -0.492,-0.61016 -0.534,-0.45132 -0.339,-0.20506 -0.164,-0.18697 -0.277,-0.006 -0.302,-0.26739 -0.211,-0.0101 -0.267,-0.0433 -0.314,-0.51566 -0.259,-0.4835 -0.442,-0.63025 0.111,-0.16486 0.129,-0.26838 -0.064,-0.35182 -0.07,-0.23924 -0.195,-0.43625 -0.641,-1.08762 -0.17,-0.15982 -0.273,-0.18396 -0.168,-0.47244 -0.077,-0.42419 -0.439,-0.20606 -0.755,-1.53392 -0.438,-0.53779 -0.173,-0.36186 -0.506,-0.59608 -0.249,-0.59407 -0.51,-0.54883 -0.442,-0.95393 -0.683,-0.95595 -0.287,-0.16585 -0.704,-0.0683 -0.296,-0.0703 -0.272,0.21007 -0.024,-0.26637 0.188,-0.3689 0.271,-0.77601 0.054,-0.68152 0.426,-2.03251 0.598,0.10455 0.492,0.0865 0.719,0.12664 0.744,0.13068 0.435,0.0764 0.149,-0.0331 0.602,-0.49858 0.542,-0.45033 0.325,-0.55184 0.314,-0.53577 0.144,-0.11058 0.482,-0.10052 0.765,-0.15982 0.757,-0.15782 0.061,-0.0542 0.176,-0.43122 0.224,-0.54783 0.046,-0.0573 0.055,-0.0563 0.542,-0.30758 0.329,-0.18697 -0.469,-0.55185 -0.442,-0.52169 -0.496,-0.58503 -0.42,-0.45636 -0.629,-0.68352 -0.412,-0.44833 0.721,-0.21309 0.78,-0.23019 0.787,-0.2322 0.947,-0.27944 0.741,-0.21914 1.106,-0.32769 0.541,-0.15983 0.098,-0.0423 0.416,-0.38799 0.626,0.10856 0.941,0.16384 0.909,0.15681 0.958,0.18596 0.307,0.15078 0.925,0.55487 0.601,0.35986 0.702,0.41916 0.877,0.52371 0.602,0.35885 0.771,0.45937 0.601,0.5237 0.761,0.66243 0.836,0.72575 0.688,0.5629 0.948,0.774 0.934,0.76094 0.915,0.74283 0.732,0.59408 0.927,0.74987 0.072,0.0282 0.937,0.0844 1.259,0.11459 1.265,0.1146 1.142,0.10353 0.498,-0.10554 z m -27.886,10.69725 -0.026,0.0422 -0.118,-0.10957 0.007,-0.24024 0.102,-0.1367 -0.008,0.18696 0.044,0.18897 -0.001,0.0683 z m 0.86,1.02531 -0.074,0 -0.197,-0.21009 -0.115,-0.1548 -0.118,-0.10454 -0.538,-0.21008 -0.073,-0.13571 0.082,-0.1357 0.058,0.13469 0.098,0.0794 0.445,0.18998 0.496,0.41414 0.085,0.0342 -0.149,0.0985 z m 14.274,26.07973 0.217,0.0171 -0.09,-0.0935 -0.019,-0.0452 0.094,-0.13469 0.31,0.27744 -0.009,0.32869 -0.026,0.0754 -0.084,-0.0704 -0.055,-0.0694 -0.017,-0.0744 -0.086,-0.0804 -0.302,0.0522 -0.188,-0.0895 -0.269,-0.27643 -0.072,-0.20003 0.112,-0.0392 0.119,-0.0965 0.075,-0.15782 -0.069,-0.16385 0.16,0.0262 0.086,0.16787 0.017,0.38097 0.024,0.0804 -0.044,0.0875 0.116,0.0975 z"
     title="Saudi Arabia"
     id="SA" />
  <path
     d="m 159.431,49.65669 -0.09,0.26939 0.525,0 0.921,0 0.921,0 0.921,0 0.921,-9.9e-4 0.92,0 0.921,0 0.921,0 0.921,0 0.921,0 0.92,0 0.922,-10e-4 0.92,0 0.921,0 0.921,0 0.921,0 0.921,-10e-4 0.031,0.68956 0.124,0.54984 0.434,0.78505 0.366,0.42219 0.132,0.2322 0.012,0.10755 -0.017,0.10052 -0.111,-0.1156 -0.188,-0.0784 -0.026,0.3669 0.043,0.26034 0.045,0.48953 0.154,0.52471 -0.111,0.4845 0.015,0.82024 0.194,0.98107 -0.039,0.62523 0.317,1.45552 0.308,0.80616 0.169,0.19802 0.191,0.10656 0.366,0.0683 0.539,0.40911 0.427,0.43223 0.152,0.22617 0.206,0.24728 0.142,-0.0442 0.087,-0.0663 0.139,0.20003 0.677,0.43123 0.1,0.20003 -0.244,0.19602 -0.281,0.33774 -0.071,0.1347 -0.033,0.0794 -0.033,0.10052 -0.074,0.0995 -0.161,0.13671 -0.064,0.0593 -0.038,0.0945 -0.097,0.0613 -0.106,0.003 -0.092,0.0422 -0.139,0.0643 -0.207,-0.0332 -0.211,0.0593 -0.077,0.0744 -0.168,0.0653 -0.167,0.0141 -0.059,0.0221 -0.158,0.10957 -0.194,0.15379 -0.227,0.0975 -0.08,0.0322 -0.104,0.10554 -0.161,0.52672 -0.118,0.13772 -0.198,0.0141 -0.257,0 -0.223,0.0452 -0.303,-0.0583 -0.147,0.007 -0.039,0.11258 -0.054,0.45133 0.007,0.19401 -0.12,0.22817 -0.134,0.28648 0.049,0.4825 0.023,0.47746 -0.246,0.71771 -0.035,0.16485 -0.249,0.56794 -0.128,0.2121 -0.318,1.05947 -0.124,0.32568 -0.266,0.34276 0.06,0.55789 0.064,0.59005 0.06,0.55687 0.09,0.8313 -0.226,0.77601 0.009,0.42319 -0.158,0.62321 -0.125,0.28849 -0.111,0.16988 -0.093,0.17691 -0.172,0.38801 -0.146,0.51164 -0.065,0.52371 -0.005,0.30457 -0.029,0.13872 -0.049,0.0885 -0.337,0.0573 -0.469,0.0623 -0.252,0.0683 -0.169,0.10655 -0.208,0.24828 -0.412,0.67951 -0.215,0.41615 -0.338,0.56894 -0.393,0.40208 -0.083,0.19601 -0.065,0.36388 -0.145,0.57597 -0.133,0.40811 0.024,0.32971 -0.124,0.56994 0.018,0.27743 -0.138,0.1548 -0.185,0.14676 -0.126,0.0372 -0.27,-0.16788 -0.206,-0.16987 -0.084,-0.0452 -0.179,0.10654 -0.215,0.15782 -0.246,0.3679 -0.191,0.37192 0.11,0.78909 -0.01,0.17188 -0.056,0.18797 -0.298,0.58703 -0.074,0.18596 -0.108,0.35182 -0.115,0.61417 -0.004,0.14776 0,0 -0.003,0 -0.522,-0.002 -0.009,-0.003 -0.008,-0.009 -0.008,-0.0131 -0.009,-0.0191 -0.02,-0.0804 -0.011,-0.12566 0.018,-0.21712 0.058,-0.25834 0.181,-0.36287 0.009,-0.0302 0.002,-0.0171 0,-0.0191 -0.017,-0.0653 -0.021,-0.0563 -0.01,-0.0844 0.031,-0.18897 0.003,-0.0583 -0.004,-0.0744 -0.014,-0.0482 -0.126,-0.31462 -0.042,-0.0502 -1.215,-1.00218 -0.222,-0.2724 -0.024,-0.0181 -0.03,-0.0141 -0.617,-0.22918 -0.03,-0.0231 0.004,-0.0332 0.019,-0.0433 0.074,-0.13267 0.01,-0.0342 0.011,-0.0532 -0.278,-2.11894 0.001,-0.0412 0.012,-0.0282 0.01,-0.0171 0.037,-0.0452 0.032,-0.0462 0.037,-0.0824 0.009,-0.0302 0.039,-0.37996 -0.003,-0.33171 0.162,-0.55386 0.018,-0.23622 -1.34,-0.0171 -0.008,0.0121 -0.001,0.0151 0.003,0.0161 0.002,0.0181 -10e-4,0.0372 -0.01,0.0683 -0.003,0.0371 0.001,0.0361 0.021,0.13369 0.035,0.0995 0.005,0.0332 0.002,0.0362 -0.004,0.0693 -1.865,0.008 0.738,0.83231 0.009,0.0171 0.013,0.0452 0.005,0.0342 0.014,0.29251 -0.039,0.46239 0.008,0.29753 0.043,0.193 0.2,0.37996 -0.013,0.0714 -0.046,0.0895 -1.323,1.12783 -0.037,0.0532 -0.184,0.47043 -0.175,0.27241 -0.077,0.0784 -0.307,0.38298 -1.207,1.2012 -0.198,0.0804 -0.601,0.0332 -0.318,0.009 -0.036,0.009 -0.054,0.0201 -0.033,0.0312 -0.039,0.0231 -0.039,-0.0121 -0.045,-0.0332 -0.742,-0.67248 -1.324,-0.84938 -0.127,0.0774 -0.749,0.3659 -0.154,0.0945 -0.086,0.0673 -0.004,0.40911 -0.131,0.20707 -0.236,0.22718 -0.648,0.14375 -0.337,0.12263 -0.345,0.18395 -0.056,0.0462 0,-0.001 -0.132,0.12766 -0.261,0.25632 -0.028,0.19903 0.042,0.17893 -2.233,-0.007 -0.147,-0.14274 -0.31,-0.62724 -0.014,-0.006 -0.228,0.0393 -2.036,-0.0734 -0.291,0.0653 -0.582,0.25934 -0.293,0.0433 -0.302,-0.11862 -1.071,-1.25045 -0.231,-0.14978 -0.085,-0.0804 -0.158,-0.21912 -0.229,-0.13069 -0.077,-0.0945 -0.025,-0.13369 0.007,-0.27543 -0.075,-0.17188 -0.169,-0.0392 -1.44,0.29049 -0.206,-0.0332 -0.302,0.0522 -0.104,0.0512 -0.122,0.16485 -0.025,0.17088 0.004,0.17289 -0.037,0.16988 -0.11,0.18998 -0.41,0.42419 -0.091,0.18496 0.019,0.46641 -0.027,0.23623 -0.062,0.10955 -0.178,0.17893 -0.065,0.10354 -0.03,0.14575 -0.01,0.30759 -0.032,0.14374 -0.224,0.36187 -0.053,0.12766 -0.013,0.26035 -0.036,0.0794 -0.651,0.20606 -0.243,0.13168 -0.149,0.20305 -0.036,0.0865 0,0 -0.279,-0.0724 -0.354,-0.0522 -0.681,-0.0643 -0.269,-0.0945 -0.129,-0.14173 0.041,-0.36187 -0.068,-0.0774 -0.108,-0.0643 -0.075,-0.15681 0.016,-0.18798 0.359,-0.41816 0.074,-0.22315 0.057,-0.77701 0.037,-0.27341 -0.027,-0.32066 -0.285,-0.59005 -0.248,-0.41012 -0.405,-0.60814 -0.158,-0.19903 -0.818,-0.83833 -0.095,-0.12464 -0.198,-0.35483 0.098,-0.31262 0.12,-0.4644 0.014,-0.21511 -0.056,-0.22214 -0.207,-0.16687 -0.184,-0.0201 -0.082,-0.0845 -0.16,-0.12264 -0.158,-0.0955 -0.14,-0.18296 -0.097,-0.25632 0.069,-0.91774 -0.047,-0.12263 -0.209,-0.0342 -0.049,-0.0663 0.008,-0.1759 -0.112,-0.52372 -0.126,-0.43424 0.067,-0.23924 -0.174,-0.32769 -0.334,-0.14072 -0.315,0.0432 -0.338,0.0653 -0.204,-0.0181 -0.139,-0.0613 -0.099,-0.11962 -0.05,-0.14274 0.046,-0.2131 0.186,-0.39202 0.231,-0.32167 0.471,-0.29451 0.125,-0.15581 0.072,-0.1739 0.012,-0.19903 -0.032,-0.21008 -0.053,-0.19199 -0.139,-0.25432 -0.127,-0.29955 -0.003,-0.20104 0.061,-0.14474 0.126,-0.1749 0.25,-0.19703 0.06,-0.0392 0.157,-0.10554 0.137,-0.0774 0.342,-0.20708 0.08,-0.0995 -0.029,-0.11961 -0.084,-0.0975 -0.138,-0.1367 -0.028,-0.16787 -0.04,-0.28648 -0.071,-0.18295 -0.051,-0.13368 0.097,-0.10053 0.145,-0.13971 0.181,-0.0855 0.279,-0.0724 0.11,-0.10052 0.032,-0.19099 -0.009,-0.18295 0.101,-0.13569 0.135,-0.29152 0.109,-0.13267 0.183,-0.15179 0.183,-0.18998 0.081,-0.22115 0.023,-0.21209 -0.1,-0.64534 0.211,-0.26939 0.27,-0.22315 0.388,0.0151 0.602,-0.0492 0.41,-0.0925 0.292,0.003 0.667,0.12061 0.055,-0.0292 0.015,-0.0242 0.036,-0.17088 -0.001,-0.43023 -0.001,-1.30272 -0.001,-1.30475 -0.001,-1.30775 -10e-4,-1.31178 -0.001,-1.3148 -0.001,-1.3178 -0.001,-1.32183 -0.001,-1.32485 0,-0.37192 0,-0.37091 0,-0.37193 0,-0.37291 0.692,9.9e-4 0.693,0 0.692,0 0.692,10e-4 0.009,-0.006 0.009,-0.005 0.008,-0.006 0.009,-0.004 0.001,-1.4897 0,-1.49472 0.001,-1.49975 0,-1.50477 1.072,0 1.073,10e-4 1.072,0 1.072,0 1.072,0 1.072,0 1.073,0 1.072,0.001 1.072,0 1.072,0 1.072,0 1.072,0 1.072,10e-4 1.072,0 1.073,0 1.072,0 0.327,0 0.144,-0.0222 0.275,-0.56391 0.117,-0.0423 0.179,0.0332 0.062,0.13269 z"
     title="Sudan"
     id="SD" />
  <path
     d="m 187.682,117.90628 0.013,-0.2302 -0.044,-0.11459 -0.266,-0.34477 -0.497,-0.64132 -0.376,-0.48551 -0.385,-0.49556 -0.002,-0.39705 -0.004,-1.1811 -0.01,-2.3612 -0.008,-2.3622 -0.01,-2.36221 -0.005,-1.1821 -0.001,-0.4835 0.04,-0.0784 0.439,-0.43324 0.58,-0.57496 0.762,-1.09064 0.414,-0.59407 0.346,-0.49355 0.087,-0.15078 0.306,-0.29954 0.573,-0.17893 0.356,-0.0302 1.225,-0.22416 0.182,-0.0905 0.107,-0.10353 0.102,-0.23622 0.238,-0.33172 0.308,-0.22918 0.585,-0.29754 0.573,-0.2523 0.127,-0.0412 0.69,-0.15881 0.169,-0.0542 0.279,-0.0553 0.11,-0.002 0.958,0.0552 0.75,0.0442 0.771,0.0443 0.082,-0.0342 0.539,-0.58904 0.858,-0.93985 0.548,-0.5991 0.846,-0.92678 0.65,-0.66947 0.719,-0.73981 0.699,-0.67751 0.839,-0.81521 0.53,-0.51365 0.822,-0.79813 0.783,-0.76093 0.692,-0.67247 -0.955,0 -0.933,0 -0.919,0 -0.164,-0.0814 -0.772,-0.26136 -0.978,-0.3307 -1.214,-0.41012 -0.865,-0.2915 -0.922,-0.30659 -0.935,-0.3096 -0.734,-0.24325 -0.915,-0.30357 -0.795,-0.26437 -0.109,-0.0643 -0.441,-0.40309 -0.579,-0.52973 -0.111,-0.009 -0.276,-0.11057 -0.248,-0.28648 -0.256,-0.36589 -0.237,-0.45836 -0.103,-0.31162 -0.317,-0.13168 -0.152,-0.24627 -0.287,-0.36488 -0.199,-0.17692 -0.071,-0.15479 -0.092,-0.31966 -0.164,-0.3488 -0.157,-0.21511 -0.036,-0.0935 0.009,-0.0603 0.291,-0.47244 0.131,-0.16889 0.149,-0.16283 0.121,-0.16284 0.047,-0.11158 0.353,-0.55688 0.311,-0.49053 0.243,-0.38298 0.548,0.43826 0.533,0.88859 0.621,0.71772 0.858,0.66543 0.34,0.22517 0.301,0.1186 1.561,-0.0181 1.108,-0.60714 1.006,-0.44028 0.338,-0.0915 0.584,0.12062 0.644,0.0362 0.579,0.13369 0.294,-0.0342 1.146,-0.51165 0.72,-0.49858 0.491,-0.2121 0.193,-0.002 0.67,0.17993 0.861,-0.0784 1.178,-0.43023 0.375,-0.0875 0.286,-0.006 0.641,0.194 0.1,-0.0101 0.347,-0.0362 0.915,-0.20505 0.713,-0.3096 1.313,-0.22416 0.999,-0.56693 0.175,-0.27442 0.302,-0.34579 0.438,-0.11358 1.12,0.40609 0.179,0.0322 -0.065,0.24526 -0.039,0.2503 -0.229,0.43626 -0.147,0.4845 0.108,0.73982 0.052,1.19819 -0.027,0.17389 -0.074,0.17089 -0.031,0.1357 -0.121,0.0472 -0.053,0.0774 0.088,0.0302 0.35,-0.12967 -0.006,-0.14374 0.02,-0.0704 0.288,0.15983 0.206,0.0663 0.06,0.15078 -0.016,0.10253 -0.327,-0.0472 -0.167,-0.0794 -0.485,0.13068 -0.297,0.14072 -0.089,0.23521 -0.069,0.93684 -0.115,0.60714 -0.022,0.80315 -0.393,0.53074 -0.132,0.37393 -0.584,0.74987 -0.304,0.63931 -0.1,0.31261 -0.513,0.87653 -0.705,0.67147 -0.254,0.85744 -0.252,0.53777 -0.285,0.48651 -0.622,0.86648 -0.318,0.60111 -0.399,1.04338 -0.123,0.65941 -1.123,1.91389 -1.165,1.52387 -0.725,1.28162 -1.302,1.48568 -1.775,1.9169 -2.324,2.27375 -0.63,0.46339 -2.543,1.40224 -1.649,1.17407 -0.842,0.79912 -0.884,0.69561 -0.702,0.66241 -2.121,2.23355 -0.218,0.21008 -0.206,0.19802 -0.267,0.37896 -0.186,0.14978 -0.506,0.6393 -0.317,0.3307 -0.354,0.3277 -0.151,0.23119 -0.106,0.26638 -0.119,0.14777 -0.319,0.63528 -0.282,0.41615 z"
     title="Somalia"
     id="SO" />

  <path
     d="m 190.001,0.92896 0,0.0472 -0.025,0.12163 -0.317,0.34981 -0.43,0.47444 -0.309,0.29956 -0.52,0.50259 -0.389,0.10756 -0.654,0.18093 -0.176,0.17491 -0.164,0.28346 -0.096,0.387 -0.028,0.24124 -0.017,0.45033 0.153,0.46742 0.147,0.44731 0.019,0.29553 -0.015,0.29049 -0.142,0.31061 -0.155,0.42519 -0.089,0.47948 -0.047,0.89563 -0.001,0.76093 -0.013,0.12364 -0.269,0.53476 -0.314,0.62523 -0.146,0.14375 -0.689,0.18596 -0.752,0.45635 -0.841,0.50963 -0.763,0.46139 -0.801,0.4835 -0.831,0.50058 -0.594,0.35684 -0.795,0.47748 -0.724,0.45535 -0.733,0.46138 -0.558,0.3488 -0.846,0.55185 -0.496,0.32367 -0.729,0.47446 -0.642,0.41715 -0.759,0.49254 -0.952,-0.14575 -0.301,-0.0855 -0.246,-0.23421 -0.181,-0.12565 -0.45,-0.12867 -0.289,-0.44328 -0.173,-0.15681 -0.302,-0.0704 0.04,-0.15882 0.156,-0.26738 0.158,-0.2915 -0.088,-0.16184 -0.029,-0.13872 -0.01,-0.16485 0.108,-0.15782 -0.051,-0.19098 -0.083,-0.19099 -0.061,-0.0965 0,-0.1759 0.04,-0.1347 0.05,-0.20606 0.128,-0.11259 0.033,-0.11761 0.115,-0.11559 0.153,-0.0945 0.035,-0.0754 -0.022,-0.0432 -0.154,-0.0855 -0.083,-0.14978 0.074,-0.21813 0.049,-0.0683 0.092,-0.10655 0.206,-0.16083 0.161,-0.0262 0.139,-10e-4 0.236,0.0141 0.183,0.0292 0.047,-0.0423 -0.007,-0.0532 -0.226,-0.13168 -0.012,-0.10554 0.056,-0.11259 0.16,-0.17892 0.191,-0.13068 0.097,-0.0231 0.218,-0.26336 0.14,-0.29452 -0.227,-0.7177 -0.136,-0.1156 -0.222,-0.0985 -0.131,-0.0151 -0.01,-0.0472 0.175,-0.18194 0.124,-0.15983 -0.137,-0.15078 -0.247,-0.0714 -0.091,0.15681 -0.316,0.0141 -0.49,-0.002 -0.216,-0.76194 -0.033,-0.33071 0.006,-0.38298 0.149,-0.56089 -0.07,-0.26035 -0.006,-0.17591 -0.038,-0.24125 -0.387,-0.52069 0.211,-0.96096 0.149,-0.2332 0.21,0.0221 0.448,0.27341 0.074,-0.008 0.136,-0.35986 0.132,-0.12162 0.276,-0.10756 0.079,-0.58301 0.129,-0.11158 0.156,-0.0603 0.24,-0.0121 0.208,-0.0342 0.013,-0.10253 -0.292,-0.67649 0.026,-0.17189 0.141,-0.68152 0.089,-0.26739 0.085,-0.0875 0.331,0.0342 0.463,0.12063 0.123,0.196 0.227,0.17491 0.339,-0.0121 0.393,0.0332 0.306,0.0111 0.245,-0.12264 0.553,-0.22918 0.273,-0.0764 0.249,-0.10152 0.8,-0.37594 0.321,0.0292 0.219,0.0492 0.168,0.0603 0.376,0.25632 0.311,0.25934 0.219,0.0774 0.392,-0.006 0.567,0.0502 0.696,-0.004 0.407,-0.0724 0.519,-0.12766 0.926,-0.30659 1.218,-0.64231 0.716,-0.31261 0.309,-0.0372 0.402,-0.003 0.402,0.0814 0.456,0.0583 0.211,-0.005 0.493,-0.0643 0.64,-0.13067 0.402,-0.10656 0.486,-0.1749 0.303,-0.2915 0.098,-0.0302 0.126,0.0532 0.059,0.0201 0.124,0.16485 z"
     title="Syria"
     id="SY" />
  <path
     d="m 103.408,14.41965 -0.006,0.0885 -0.099,0.63629 -0.022,0.22817 -0.015,0.387 0,0.4644 0.224,0.39203 0.006,0.17188 -0.087,0.19904 -0.413,0.22716 -0.533,0.29352 -0.458,0.27844 -0.502,0.30558 -0.154,0.19702 -0.249,0.15178 -0.208,0.15178 -0.038,0.14576 -0.146,0.27442 -0.19,0.21913 -0.477,0.10353 -0.088,0.0653 -0.221,0.3297 -0.102,0.12867 -0.126,0.2704 0.162,0.69961 0.198,0.71771 0.039,0.29854 -0.003,0.24828 -0.111,0.26739 -0.254,0.38197 -0.186,0.28045 -0.357,0.5036 -0.105,0.12464 -0.246,0.14676 -0.475,0.194 -0.335,0.17189 -0.17,-0.76797 -0.146,-0.65638 -0.12,-0.54281 -0.211,-0.95795 -0.18,-0.81622 -0.179,-0.81521 -0.163,-0.74183 -0.164,-0.74887 -0.07,-0.10956 -0.491,-0.35383 -0.452,-0.32669 -0.471,-0.37192 -0.51,-0.40308 -0.082,-0.50863 -0.262,-0.76998 -0.276,-0.43022 -0.104,-0.11259 -0.557,-0.27843 -0.321,-0.20506 -0.088,-0.11962 -0.062,-0.31462 -0.229,-0.62724 -0.261,-0.57096 -0.096,-0.387 -0.013,-0.48752 0.051,-0.35282 0.114,-0.15078 0.544,-0.44027 0.252,-0.52973 0.312,-0.19904 0.27,-0.14977 0.219,-0.17491 0.194,-0.28044 0.148,-0.29955 0.025,-0.32468 0.062,-0.51566 0.099,-0.36087 0.23,-0.40911 L 94.576,7.22247 94.454,6.86663 94.489,6.24844 94.458,5.99714 94.359,5.77499 94.258,5.48952 94.255,5.25128 94.352,4.62505 94.426,4.14557 94.544,3.52135 94.502,3.34644 94.414,3.21577 94.15,3.07806 l -0.003,-0.0834 0.064,-0.0925 0.39,-0.30558 0.209,-0.44932 0.175,-0.0935 0.266,-0.16284 -0.01,-0.1749 -0.06,-0.18797 0.693,-0.21209 0.66,-0.55688 0.233,-0.13671 1.532,-0.51465 0.199,0.0351 0.223,0.0754 -0.064,0.192 -0.088,0.15178 0.13,0.26838 0.186,-0.16384 -0.047,-0.10956 -0.011,-0.14576 0.315,-0.0131 0.279,0.0231 0.306,0.15983 -0.021,0.60613 0.408,0.59206 -0.115,0.29452 0.334,0.1739 0.297,-0.20908 0.149,-0.3086 0.547,-0.17892 0.52,-0.45435 0.288,-0.0462 0.065,0.37292 0.139,0.32569 -0.197,0.11459 -0.25,0.34578 -0.475,0.87452 -0.437,0.25632 -0.328,0.33574 -0.106,0.23823 -0.032,0.27743 0.082,0.49657 0.239,0.5036 0.276,0.30357 0.266,0.0945 0.619,0.47847 -0.01,0.28346 0.086,0.33674 0.033,0.40912 0.215,0.32669 -0.46,0.70966 -0.252,0.51164 -0.492,0.70364 -0.438,0.45635 -0.938,0.6765 -0.23,0.22416 -0.15,0.2322 -0.069,0.24225 0.025,0.28447 0.309,0.69861 0.411,0.41112 0.418,0.22215 0.727,-0.0895 -0.025,0.2684 0.052,0.32065 0.295,-0.0151 0.198,-0.0502 0.167,-0.31262 0.355,0.2141 0.185,0.65137 0.301,0.20305 0.035,0.0754 -0.106,0.0502 -0.083,0.0744 0.089,0.0532 0.291,0.0804 0.176,-0.0512 0.298,0.14977 z m -0.636,-5.32149 -0.433,0.24627 0.083,-0.21411 0.286,-0.25933 0.074,0.0623 -0.01,0.16485 z m -0.899,3.5041 -0.074,0.0161 -0.136,0.0915 -0.072,0.0101 -0.204,-0.10354 -0.078,10e-4 -0.098,-0.0724 0.033,-0.39403 0.032,-0.11157 0.496,-0.0151 0.269,0.23622 0.044,0.0623 0.011,0.0673 -0.125,0.13168 -0.098,0.0804 z"
     title="Tunisia"
     id="TN" />
  <path
     d="m 220.105,65.82321 -1.415,0.52069 -0.373,0.23119 -0.339,0.28547 -0.254,0.35685 -0.178,0.62623 0.135,0.57196 -0.013,0.30659 -0.365,0.20305 -0.341,0.14575 -0.379,0.22315 -0.23,0.0553 -0.188,0.17691 -0.219,0.12364 -0.789,0.32166 -0.862,0.24828 -1.37,0.29754 -0.529,0.32266 -0.481,0.22115 -0.731,0.0663 -1.004,0.30659 -0.558,0.24526 -0.693,0.39906 -0.153,0.12565 -0.122,0.29352 -0.213,0.25331 -0.417,0.41514 -0.313,0.2131 -0.209,0.0111 -0.406,0.1166 -0.481,0.0242 -0.808,-0.14575 -0.208,0.10151 -0.171,0.16185 -0.623,0.28447 -0.633,0.56793 -0.463,0.15078 -0.749,0.17792 -0.524,0.23622 -0.352,0.0945 -0.453,0.0492 -0.839,-0.0242 -0.795,0.0855 -0.737,0.15982 -0.346,0.30256 -0.395,0.47948 -0.645,0.19803 -0.152,0.17189 -0.199,0.35282 -0.417,0.0915 -0.378,0.0593 -0.386,-0.1538 -0.728,0.4262 -0.275,0.0704 -0.418,0.0171 -0.297,0.0895 -0.213,-0.0252 -0.265,-0.16687 -0.564,-0.20204 -0.412,0.13168 -0.035,-0.40308 -0.683,-1.23236 0.142,-1.07456 0,-0.15178 -0.136,-0.48049 -0.407,-0.43926 0.012,-0.55688 -0.136,-0.39806 -0.108,-0.41012 0.035,-0.10856 0.006,-0.0985 -0.208,-0.63227 -0.069,-0.12766 -0.026,-0.13269 0.068,-0.10152 -0.002,-0.11761 -0.11,-0.194 -0.117,-0.36992 -0.555,-0.29049 0.113,-0.27241 0.108,0.0955 0.146,0.0814 0.03,-0.1759 0.002,-0.13168 -0.232,-0.82326 0.344,-1.09968 -0.113,-0.99213 0.525,-0.40107 0.132,-0.12062 0.076,-0.10555 0.124,-0.22717 0.169,-0.0734 0.06,-0.23924 -0.005,-0.11961 -0.109,-0.10253 -0.082,-0.27844 0.027,-0.35383 0.027,-0.14776 0.057,-0.2704 0.184,-0.10052 0.043,-0.0804 -0.142,-0.17089 0.013,-0.10253 0.312,-0.28648 0.123,-0.0855 0.202,-0.0885 0.158,9.9e-4 0.182,0.0502 0.163,0.0804 0.158,0.14575 0.167,0.16585 0.256,0.0633 0.174,-0.0161 0.142,0.0734 0.12,-0.0403 0.136,-0.0854 0.218,0.005 0.196,-0.0965 0.558,-0.0462 0.538,0.0292 0.562,-0.0804 0.561,0.006 0.566,0.006 0.125,0.0121 0.123,0.0502 0.477,0.25331 0.362,0.0522 0.727,0.0694 0.775,0.0744 0.672,0.0633 0.57,-0.0603 0.473,-0.0492 0.128,0.008 0.143,0.15681 0.285,0.39102 0.269,0.3679 0.471,0.0201 0.302,-0.13872 0.332,-0.19501 0.203,-0.15078 0.235,-0.59909 0.152,-0.38801 0.349,-0.43726 0.292,-0.36588 0.386,-0.48552 0.214,-0.26838 0.422,-0.53074 0.403,-0.20707 0.778,-0.39906 0.763,-0.39303 0.497,-0.25632 0.423,-0.11661 0.709,-0.10052 0.833,-0.11861 0.833,-0.11862 0.889,-0.12564 0.99,-0.14073 0.679,-0.0965 0.865,-0.12364 0.72,-0.10253 0.64,-0.0905 0.659,-0.0935 0.124,0.29553 0.124,0.29553 0.125,0.29552 0.124,0.29553 0.124,0.29552 0.124,0.29553 0.124,0.29452 0.125,0.29452 0.124,0.29453 0.124,0.29452 0.124,0.29452 0.125,0.29452 0.124,0.29352 0.124,0.29351 0.124,0.29352 0.124,0.29351 0.122,0.28648 0.2,0.0955 0.119,0.2714 0.17,0.387 0.171,0.38599 0.17,0.386 0.168,0.387 z m -29.455,3.92327 -0.088,0.0643 -0.027,-0.11258 0.058,-0.25331 0.092,-0.0734 0.062,0.18797 -0.04,0.10353 -0.057,0.0834 z m 0.553,3.85893 -0.037,0.0613 -0.051,-0.0131 -0.174,-0.15379 0.191,-0.17189 0.102,0.15982 -0.031,0.11761 z m -0.089,0.77199 -0.186,0.0885 0.127,-0.22918 0.13,-0.0472 0.036,0.009 -0.107,0.17892 z m 30.892,3.07288 0.174,0.0342 0.263,-0.0995 0.754,-0.0131 0.909,0.31965 -0.172,0.0834 -0.102,0.11559 -0.399,0.10554 -0.398,0.24627 -1.152,0.11963 -0.338,-0.0663 -0.278,-0.23823 -0.515,-0.3096 0.203,-0.19802 0.044,-0.0905 0.076,-0.0865 0.291,-0.14978 0.291,0.0242 0.349,0.20305 z"
     title="Yemen"
     id="YE" />
</svg>
