<svg width="1440" height="768" viewBox="0 0 1440 768" fill="none" xmlns="http://www.w3.org/2000/svg">
<rect width="1440" height="768" fill="#1E1E1E"/>
<path d="M-156 -219C-156 -220.105 -155.105 -221 -154 -221H1594C1595.1 -221 1596 -220.105 1596 -219V7945C1596 7946.1 1595.1 7947 1594 7947H-154C-155.105 7947 -156 7946.1 -156 7945V-219Z" fill="#333333"/>
<path d="M-154 -220H1594V-222H-154V-220ZM1595 -219V7945H1597V-219H1595ZM1594 7946H-154V7948H1594V7946ZM-155 7945V-219H-157V7945H-155ZM-154 7946C-154.552 7946 -155 7945.55 -155 7945H-157C-157 7946.66 -155.657 7948 -154 7948V7946ZM1595 7945C1595 7945.55 1594.55 7946 1594 7946V7948C1595.66 7948 1597 7946.66 1597 7945H1595ZM1594 -220C1594.55 -220 1595 -219.552 1595 -219H1597C1597 -220.657 1595.66 -222 1594 -222V-220ZM-154 -222C-155.657 -222 -157 -220.657 -157 -219H-155C-155 -219.552 -154.552 -220 -154 -220V-222Z" fill="white" fill-opacity="0.1"/>
<rect width="1440" height="2999" fill="white"/>
<g clip-path="url(#clip0_0_1)">
<rect width="1440" height="768" fill="white"/>
<g clip-path="url(#clip1_0_1)">
<g filter="url(#filter0_f_0_1)">
<ellipse cx="664.985" cy="673.184" rx="664.985" ry="673.184" transform="matrix(0.621948 -0.783059 -0.783059 -0.621948 1622.83 1290.4)" fill="url(#paint0_linear_0_1)"/>
</g>
<g filter="url(#filter1_f_0_1)">
<ellipse cx="449.681" cy="454.849" rx="449.681" ry="454.849" transform="matrix(-1 0 0 1 1685.74 -718.523)" fill="#3B1FE7"/>
</g>
<g filter="url(#filter2_f_0_1)">
<ellipse cx="367.337" cy="371.793" rx="367.337" ry="371.793" transform="matrix(-1 0 0 1 1814.42 -731)" fill="#FFC1DF"/>
</g>
<g filter="url(#filter3_f_0_1)">
<path d="M658.633 653.535C518.225 303.215 740.059 -128.066 1375.14 -247.196C785.873 -6.79345 779.626 391.712 834.37 688.696L658.633 653.535Z" fill="white" fill-opacity="0.85"/>
</g>
<g filter="url(#filter4_f_0_1)">
<path d="M516.567 488.432C361.606 272.29 440.937 -60.134 855.532 -248.389C492.67 15.1585 555.366 288.923 642.74 482.961L516.567 488.432Z" fill="white" fill-opacity="0.85"/>
</g>
<g filter="url(#filter5_f_0_1)">
<path d="M993.118 638.495C885.229 359.019 1065.68 18.9573 1570.96 -69.1548C1100.81 115.677 1091.81 431.912 1132.25 668.185L993.118 638.495Z" fill="url(#paint1_linear_0_1)" fill-opacity="0.7"/>
</g>
<g filter="url(#filter6_f_0_1)">
<path d="M1209.52 679.957C1165.3 383.661 1415.68 91.2414 1928.01 115.658C1428.83 193.301 1845.53 591.79 1833.37 831.19L1209.52 679.957Z" fill="white" fill-opacity="0.8"/>
</g>
<g filter="url(#filter7_f_0_1)">
<ellipse cx="-144.271" cy="350.994" rx="664.985" ry="673.184" transform="rotate(-128.459 -144.271 350.994)" fill="url(#paint2_linear_0_1)"/>
</g>
<g filter="url(#filter8_f_0_1)">
<ellipse cx="128.942" cy="-263.674" rx="449.681" ry="454.849" fill="#3B1FE7"/>
</g>
<g filter="url(#filter9_f_0_1)">
<ellipse cx="-82.0863" cy="-359.207" rx="367.337" ry="371.793" fill="#FFC1DF"/>
</g>
<g filter="url(#filter10_f_0_1)">
<path d="M706.367 653.535C846.775 303.215 624.941 -128.066 -10.1444 -247.196C579.127 -6.79345 585.374 391.712 530.63 688.696L706.367 653.535Z" fill="white" fill-opacity="0.85"/>
</g>
<g filter="url(#filter11_f_0_1)">
<path d="M848.433 488.432C1003.39 272.29 924.063 -60.134 509.468 -248.389C872.33 15.1585 809.634 288.923 722.26 482.961L848.433 488.432Z" fill="white" fill-opacity="0.85"/>
</g>
<g filter="url(#filter12_f_0_1)">
<path d="M371.882 638.495C479.771 359.019 299.325 18.9573 -205.957 -69.1548C264.192 115.677 273.193 431.912 232.754 668.185L371.882 638.495Z" fill="url(#paint3_linear_0_1)" fill-opacity="0.7"/>
</g>
<g filter="url(#filter13_f_0_1)">
<path d="M155.485 679.957C199.705 383.661 -50.683 91.2414 -563.008 115.658C-63.8344 193.301 -480.532 591.79 -468.369 831.19L155.485 679.957Z" fill="white" fill-opacity="0.8"/>
</g>
</g>
</g>
<defs>
<filter id="filter0_f_0_1" x="482.753" y="-673.663" width="2053.04" height="2049.31" filterUnits="userSpaceOnUse" color-interpolation-filters="sRGB">
<feFlood flood-opacity="0" result="BackgroundImageFix"/>
<feBlend mode="normal" in="SourceGraphic" in2="BackgroundImageFix" result="shape"/>
<feGaussianBlur stdDeviation="178.232" result="effect1_foregroundBlur_0_1"/>
</filter>
<filter id="filter1_f_0_1" x="429.913" y="-1074.99" width="1612.29" height="1622.63" filterUnits="userSpaceOnUse" color-interpolation-filters="sRGB">
<feFlood flood-opacity="0" result="BackgroundImageFix"/>
<feBlend mode="normal" in="SourceGraphic" in2="BackgroundImageFix" result="shape"/>
<feGaussianBlur stdDeviation="178.232" result="effect1_foregroundBlur_0_1"/>
</filter>
<filter id="filter2_f_0_1" x="723.284" y="-1087.46" width="1447.6" height="1456.52" filterUnits="userSpaceOnUse" color-interpolation-filters="sRGB">
<feFlood flood-opacity="0" result="BackgroundImageFix"/>
<feBlend mode="normal" in="SourceGraphic" in2="BackgroundImageFix" result="shape"/>
<feGaussianBlur stdDeviation="178.232" result="effect1_foregroundBlur_0_1"/>
</filter>
<filter id="filter3_f_0_1" x="439.947" y="-425.428" width="1113.43" height="1292.36" filterUnits="userSpaceOnUse" color-interpolation-filters="sRGB">
<feFlood flood-opacity="0" result="BackgroundImageFix"/>
<feBlend mode="normal" in="SourceGraphic" in2="BackgroundImageFix" result="shape"/>
<feGaussianBlur stdDeviation="89.1162" result="effect1_foregroundBlur_0_1"/>
</filter>
<filter id="filter4_f_0_1" x="264.775" y="-426.622" width="768.989" height="1093.29" filterUnits="userSpaceOnUse" color-interpolation-filters="sRGB">
<feFlood flood-opacity="0" result="BackgroundImageFix"/>
<feBlend mode="normal" in="SourceGraphic" in2="BackgroundImageFix" result="shape"/>
<feGaussianBlur stdDeviation="89.1162" result="effect1_foregroundBlur_0_1"/>
</filter>
<filter id="filter5_f_0_1" x="838.313" y="-193.918" width="857.407" height="986.866" filterUnits="userSpaceOnUse" color-interpolation-filters="sRGB">
<feFlood flood-opacity="0" result="BackgroundImageFix"/>
<feBlend mode="normal" in="SourceGraphic" in2="BackgroundImageFix" result="shape"/>
<feGaussianBlur stdDeviation="62.3814" result="effect1_foregroundBlur_0_1"/>
</filter>
<filter id="filter6_f_0_1" x="990.644" y="-99.6505" width="1151.24" height="1144.72" filterUnits="userSpaceOnUse" color-interpolation-filters="sRGB">
<feFlood flood-opacity="0" result="BackgroundImageFix"/>
<feBlend mode="normal" in="SourceGraphic" in2="BackgroundImageFix" result="shape"/>
<feGaussianBlur stdDeviation="106.94" result="effect1_foregroundBlur_0_1"/>
</filter>
<filter id="filter7_f_0_1" x="-1170.79" y="-673.663" width="2053.04" height="2049.31" filterUnits="userSpaceOnUse" color-interpolation-filters="sRGB">
<feFlood flood-opacity="0" result="BackgroundImageFix"/>
<feBlend mode="normal" in="SourceGraphic" in2="BackgroundImageFix" result="shape"/>
<feGaussianBlur stdDeviation="178.232" result="effect1_foregroundBlur_0_1"/>
</filter>
<filter id="filter8_f_0_1" x="-677.204" y="-1074.99" width="1612.29" height="1622.63" filterUnits="userSpaceOnUse" color-interpolation-filters="sRGB">
<feFlood flood-opacity="0" result="BackgroundImageFix"/>
<feBlend mode="normal" in="SourceGraphic" in2="BackgroundImageFix" result="shape"/>
<feGaussianBlur stdDeviation="178.232" result="effect1_foregroundBlur_0_1"/>
</filter>
<filter id="filter9_f_0_1" x="-805.888" y="-1087.46" width="1447.6" height="1456.52" filterUnits="userSpaceOnUse" color-interpolation-filters="sRGB">
<feFlood flood-opacity="0" result="BackgroundImageFix"/>
<feBlend mode="normal" in="SourceGraphic" in2="BackgroundImageFix" result="shape"/>
<feGaussianBlur stdDeviation="178.232" result="effect1_foregroundBlur_0_1"/>
</filter>
<filter id="filter10_f_0_1" x="-188.377" y="-425.428" width="1113.43" height="1292.36" filterUnits="userSpaceOnUse" color-interpolation-filters="sRGB">
<feFlood flood-opacity="0" result="BackgroundImageFix"/>
<feBlend mode="normal" in="SourceGraphic" in2="BackgroundImageFix" result="shape"/>
<feGaussianBlur stdDeviation="89.1162" result="effect1_foregroundBlur_0_1"/>
</filter>
<filter id="filter11_f_0_1" x="331.236" y="-426.622" width="768.989" height="1093.29" filterUnits="userSpaceOnUse" color-interpolation-filters="sRGB">
<feFlood flood-opacity="0" result="BackgroundImageFix"/>
<feBlend mode="normal" in="SourceGraphic" in2="BackgroundImageFix" result="shape"/>
<feGaussianBlur stdDeviation="89.1162" result="effect1_foregroundBlur_0_1"/>
</filter>
<filter id="filter12_f_0_1" x="-330.72" y="-193.918" width="857.407" height="986.866" filterUnits="userSpaceOnUse" color-interpolation-filters="sRGB">
<feFlood flood-opacity="0" result="BackgroundImageFix"/>
<feBlend mode="normal" in="SourceGraphic" in2="BackgroundImageFix" result="shape"/>
<feGaussianBlur stdDeviation="62.3814" result="effect1_foregroundBlur_0_1"/>
</filter>
<filter id="filter13_f_0_1" x="-776.887" y="-99.6505" width="1151.24" height="1144.72" filterUnits="userSpaceOnUse" color-interpolation-filters="sRGB">
<feFlood flood-opacity="0" result="BackgroundImageFix"/>
<feBlend mode="normal" in="SourceGraphic" in2="BackgroundImageFix" result="shape"/>
<feGaussianBlur stdDeviation="106.94" result="effect1_foregroundBlur_0_1"/>
</filter>
<linearGradient id="paint0_linear_0_1" x1="490.852" y1="1021.09" x2="664.985" y2="1346.37" gradientUnits="userSpaceOnUse">
<stop stop-color="white"/>
<stop offset="1" stop-color="#391DE8"/>
</linearGradient>
<linearGradient id="paint1_linear_0_1" x1="1063.17" y1="414.585" x2="1975.44" y2="-437.301" gradientUnits="userSpaceOnUse">
<stop stop-color="white"/>
<stop offset="1" stop-color="white" stop-opacity="0"/>
</linearGradient>
<linearGradient id="paint2_linear_0_1" x1="-318.404" y1="698.904" x2="-144.271" y2="1024.18" gradientUnits="userSpaceOnUse">
<stop stop-color="white"/>
<stop offset="1" stop-color="#391DE8"/>
</linearGradient>
<linearGradient id="paint3_linear_0_1" x1="301.832" y1="414.585" x2="-610.438" y2="-437.301" gradientUnits="userSpaceOnUse">
<stop stop-color="white"/>
<stop offset="1" stop-color="white" stop-opacity="0"/>
</linearGradient>
<clipPath id="clip0_0_1">
<rect width="1440" height="768" fill="white"/>
</clipPath>
<clipPath id="clip1_0_1">
<rect width="1440" height="768" fill="white"/>
</clipPath>
</defs>
</svg>
