<svg width="1440" height="768" viewBox="0 0 1440 768" fill="none" xmlns="http://www.w3.org/2000/svg">
<g clip-path="url(#clip0_1_1457)">
<rect width="1440" height="768" fill="white"/>
<g clip-path="url(#clip1_1_1457)">
<g filter="url(#filter0_f_1_1457)">
<ellipse cx="664.985" cy="673.184" rx="664.985" ry="673.184" transform="matrix(-0.621948 0.783059 0.783059 0.621948 -182.827 -522.402)" fill="url(#paint0_linear_1_1457)"/>
</g>
<g filter="url(#filter1_f_1_1457)">
<ellipse cx="449.681" cy="454.849" rx="449.681" ry="454.849" transform="matrix(1 -8.74228e-08 -8.74228e-08 -1 -245.739 1486.52)" fill="#3B1FE7"/>
</g>
<g filter="url(#filter2_f_1_1457)">
<ellipse cx="367.337" cy="371.793" rx="367.337" ry="371.793" transform="matrix(1 -8.74228e-08 -8.74228e-08 -1 -374.423 1499)" fill="#FFC1DF"/>
</g>
<g filter="url(#filter3_f_1_1457)">
<path d="M781.367 114.465C921.775 464.785 699.941 896.066 64.8556 1015.2C654.127 774.793 660.374 376.288 605.63 79.3043L781.367 114.465Z" fill="white" fill-opacity="0.85"/>
</g>
<g filter="url(#filter4_f_1_1457)">
<path d="M923.433 279.568C1078.39 495.71 999.063 828.134 584.468 1016.39C947.33 752.841 884.634 479.077 797.26 285.039L923.433 279.568Z" fill="white" fill-opacity="0.85"/>
</g>
<g filter="url(#filter5_f_1_1457)">
<path d="M446.882 129.505C554.771 408.981 374.325 749.043 -130.957 837.155C339.192 652.323 348.193 336.088 307.754 99.8145L446.882 129.505Z" fill="url(#paint1_linear_1_1457)" fill-opacity="0.7"/>
</g>
<g filter="url(#filter6_f_1_1457)">
<path d="M230.485 88.0428C274.705 384.339 24.317 676.759 -488.008 652.342C11.1657 574.699 -405.532 176.21 -393.369 -63.1903L230.485 88.0428Z" fill="white" fill-opacity="0.8"/>
</g>
<g filter="url(#filter7_f_1_1457)">
<ellipse cx="1584.27" cy="417.006" rx="664.985" ry="673.184" transform="rotate(51.5415 1584.27 417.006)" fill="url(#paint2_linear_1_1457)"/>
</g>
<g filter="url(#filter8_f_1_1457)">
<ellipse cx="1311.06" cy="1031.67" rx="449.681" ry="454.849" transform="rotate(180 1311.06 1031.67)" fill="#3B1FE7"/>
</g>
<g filter="url(#filter9_f_1_1457)">
<ellipse cx="1522.09" cy="1127.21" rx="367.337" ry="371.793" transform="rotate(180 1522.09 1127.21)" fill="#FFC1DF"/>
</g>
<g filter="url(#filter10_f_1_1457)">
<path d="M733.633 114.465C593.225 464.785 815.059 896.066 1450.14 1015.2C860.873 774.793 854.626 376.288 909.37 79.3042L733.633 114.465Z" fill="white" fill-opacity="0.85"/>
</g>
<g filter="url(#filter11_f_1_1457)">
<path d="M591.567 279.568C436.606 495.71 515.937 828.134 930.532 1016.39C567.67 752.841 630.366 479.077 717.74 285.039L591.567 279.568Z" fill="white" fill-opacity="0.85"/>
</g>
<g filter="url(#filter12_f_1_1457)">
<path d="M1068.12 129.505C960.229 408.981 1140.68 749.043 1645.96 837.155C1175.81 652.323 1166.81 336.088 1207.25 99.8145L1068.12 129.505Z" fill="url(#paint3_linear_1_1457)" fill-opacity="0.7"/>
</g>
<g filter="url(#filter13_f_1_1457)">
<path d="M1284.52 88.0426C1240.3 384.339 1490.68 676.758 2003.01 652.342C1503.83 574.699 1920.53 176.21 1908.37 -63.1905L1284.52 88.0426Z" fill="white" fill-opacity="0.8"/>
</g>
</g>
</g>
<defs>
<filter id="filter0_f_1_1457" x="-1095.79" y="-607.651" width="2053.04" height="2049.31" filterUnits="userSpaceOnUse" color-interpolation-filters="sRGB">
<feFlood flood-opacity="0" result="BackgroundImageFix"/>
<feBlend mode="normal" in="SourceGraphic" in2="BackgroundImageFix" result="shape"/>
<feGaussianBlur stdDeviation="178.232" result="effect1_foregroundBlur_1_1457"/>
</filter>
<filter id="filter1_f_1_1457" x="-602.204" y="220.36" width="1612.29" height="1622.63" filterUnits="userSpaceOnUse" color-interpolation-filters="sRGB">
<feFlood flood-opacity="0" result="BackgroundImageFix"/>
<feBlend mode="normal" in="SourceGraphic" in2="BackgroundImageFix" result="shape"/>
<feGaussianBlur stdDeviation="178.232" result="effect1_foregroundBlur_1_1457"/>
</filter>
<filter id="filter2_f_1_1457" x="-730.888" y="398.949" width="1447.6" height="1456.52" filterUnits="userSpaceOnUse" color-interpolation-filters="sRGB">
<feFlood flood-opacity="0" result="BackgroundImageFix"/>
<feBlend mode="normal" in="SourceGraphic" in2="BackgroundImageFix" result="shape"/>
<feGaussianBlur stdDeviation="178.232" result="effect1_foregroundBlur_1_1457"/>
</filter>
<filter id="filter3_f_1_1457" x="-113.377" y="-98.9282" width="1113.43" height="1292.36" filterUnits="userSpaceOnUse" color-interpolation-filters="sRGB">
<feFlood flood-opacity="0" result="BackgroundImageFix"/>
<feBlend mode="normal" in="SourceGraphic" in2="BackgroundImageFix" result="shape"/>
<feGaussianBlur stdDeviation="89.1162" result="effect1_foregroundBlur_1_1457"/>
</filter>
<filter id="filter4_f_1_1457" x="406.236" y="101.335" width="768.989" height="1093.29" filterUnits="userSpaceOnUse" color-interpolation-filters="sRGB">
<feFlood flood-opacity="0" result="BackgroundImageFix"/>
<feBlend mode="normal" in="SourceGraphic" in2="BackgroundImageFix" result="shape"/>
<feGaussianBlur stdDeviation="89.1162" result="effect1_foregroundBlur_1_1457"/>
</filter>
<filter id="filter5_f_1_1457" x="-255.72" y="-24.9482" width="857.407" height="986.866" filterUnits="userSpaceOnUse" color-interpolation-filters="sRGB">
<feFlood flood-opacity="0" result="BackgroundImageFix"/>
<feBlend mode="normal" in="SourceGraphic" in2="BackgroundImageFix" result="shape"/>
<feGaussianBlur stdDeviation="62.3814" result="effect1_foregroundBlur_1_1457"/>
</filter>
<filter id="filter6_f_1_1457" x="-701.887" y="-277.069" width="1151.24" height="1144.72" filterUnits="userSpaceOnUse" color-interpolation-filters="sRGB">
<feFlood flood-opacity="0" result="BackgroundImageFix"/>
<feBlend mode="normal" in="SourceGraphic" in2="BackgroundImageFix" result="shape"/>
<feGaussianBlur stdDeviation="106.94" result="effect1_foregroundBlur_1_1457"/>
</filter>
<filter id="filter7_f_1_1457" x="557.753" y="-607.652" width="2053.04" height="2049.31" filterUnits="userSpaceOnUse" color-interpolation-filters="sRGB">
<feFlood flood-opacity="0" result="BackgroundImageFix"/>
<feBlend mode="normal" in="SourceGraphic" in2="BackgroundImageFix" result="shape"/>
<feGaussianBlur stdDeviation="178.232" result="effect1_foregroundBlur_1_1457"/>
</filter>
<filter id="filter8_f_1_1457" x="504.913" y="220.36" width="1612.29" height="1622.63" filterUnits="userSpaceOnUse" color-interpolation-filters="sRGB">
<feFlood flood-opacity="0" result="BackgroundImageFix"/>
<feBlend mode="normal" in="SourceGraphic" in2="BackgroundImageFix" result="shape"/>
<feGaussianBlur stdDeviation="178.232" result="effect1_foregroundBlur_1_1457"/>
</filter>
<filter id="filter9_f_1_1457" x="798.284" y="398.949" width="1447.6" height="1456.52" filterUnits="userSpaceOnUse" color-interpolation-filters="sRGB">
<feFlood flood-opacity="0" result="BackgroundImageFix"/>
<feBlend mode="normal" in="SourceGraphic" in2="BackgroundImageFix" result="shape"/>
<feGaussianBlur stdDeviation="178.232" result="effect1_foregroundBlur_1_1457"/>
</filter>
<filter id="filter10_f_1_1457" x="514.947" y="-98.9283" width="1113.43" height="1292.36" filterUnits="userSpaceOnUse" color-interpolation-filters="sRGB">
<feFlood flood-opacity="0" result="BackgroundImageFix"/>
<feBlend mode="normal" in="SourceGraphic" in2="BackgroundImageFix" result="shape"/>
<feGaussianBlur stdDeviation="89.1162" result="effect1_foregroundBlur_1_1457"/>
</filter>
<filter id="filter11_f_1_1457" x="339.775" y="101.335" width="768.989" height="1093.29" filterUnits="userSpaceOnUse" color-interpolation-filters="sRGB">
<feFlood flood-opacity="0" result="BackgroundImageFix"/>
<feBlend mode="normal" in="SourceGraphic" in2="BackgroundImageFix" result="shape"/>
<feGaussianBlur stdDeviation="89.1162" result="effect1_foregroundBlur_1_1457"/>
</filter>
<filter id="filter12_f_1_1457" x="913.313" y="-24.9483" width="857.407" height="986.866" filterUnits="userSpaceOnUse" color-interpolation-filters="sRGB">
<feFlood flood-opacity="0" result="BackgroundImageFix"/>
<feBlend mode="normal" in="SourceGraphic" in2="BackgroundImageFix" result="shape"/>
<feGaussianBlur stdDeviation="62.3814" result="effect1_foregroundBlur_1_1457"/>
</filter>
<filter id="filter13_f_1_1457" x="1065.64" y="-277.07" width="1151.24" height="1144.72" filterUnits="userSpaceOnUse" color-interpolation-filters="sRGB">
<feFlood flood-opacity="0" result="BackgroundImageFix"/>
<feBlend mode="normal" in="SourceGraphic" in2="BackgroundImageFix" result="shape"/>
<feGaussianBlur stdDeviation="106.94" result="effect1_foregroundBlur_1_1457"/>
</filter>
<linearGradient id="paint0_linear_1_1457" x1="490.852" y1="1021.09" x2="664.985" y2="1346.37" gradientUnits="userSpaceOnUse">
<stop stop-color="white"/>
<stop offset="1" stop-color="#391DE8"/>
</linearGradient>
<linearGradient id="paint1_linear_1_1457" x1="376.832" y1="353.415" x2="-535.438" y2="1205.3" gradientUnits="userSpaceOnUse">
<stop stop-color="white"/>
<stop offset="1" stop-color="white" stop-opacity="0"/>
</linearGradient>
<linearGradient id="paint2_linear_1_1457" x1="1410.14" y1="764.916" x2="1584.27" y2="1090.19" gradientUnits="userSpaceOnUse">
<stop stop-color="white"/>
<stop offset="1" stop-color="#391DE8"/>
</linearGradient>
<linearGradient id="paint3_linear_1_1457" x1="1138.17" y1="353.415" x2="2050.44" y2="1205.3" gradientUnits="userSpaceOnUse">
<stop stop-color="white"/>
<stop offset="1" stop-color="white" stop-opacity="0"/>
</linearGradient>
<clipPath id="clip0_1_1457">
<rect width="1440" height="768" fill="white"/>
</clipPath>
<clipPath id="clip1_1_1457">
<rect width="1440" height="768" fill="white" transform="translate(1440 768) rotate(180)"/>
</clipPath>
</defs>
</svg>
